<svg id="svg" version="1.1" xmlns="http://www.w3.org/2000/svg" xmlns:xlink="http://www.w3.org/1999/xlink" width="400" height="232.00000000000003" viewBox="0, 0, 400,232.00000000000003"><g id="svgg"><path id="path0" d="M59.629 202.643 C 55.792 203.210,53.246 205.413,51.933 209.302 C 50.766 212.757,51.456 219.297,53.222 221.527 C 55.414 224.294,58.263 225.390,62.922 225.257 C 66.502 225.155,66.589 225.100,66.589 222.983 L 66.589 221.430 63.283 221.446 C 58.651 221.468,57.395 220.749,56.391 217.497 C 54.039 209.882,59.016 204.167,66.067 206.386 C 66.579 206.547,66.589 206.513,66.589 204.698 L 66.589 202.845 64.543 202.583 C 62.227 202.285,62.028 202.288,59.629 202.643 M76.218 202.552 C 75.963 202.662,75.474 202.759,75.133 202.768 C 73.532 202.810,70.721 205.175,69.734 207.309 C 69.498 207.819,69.221 208.410,69.119 208.621 C 67.539 211.880,68.664 219.813,71.112 222.673 C 71.877 223.567,72.445 223.918,74.745 224.921 C 75.842 225.399,80.713 225.443,81.635 224.983 C 84.569 223.519,84.939 223.248,85.810 221.926 C 89.191 216.794,88.555 208.296,84.505 204.491 C 82.794 202.882,78.038 201.770,76.218 202.552 M121.346 202.644 L 118.910 202.900 118.849 213.979 L 118.789 225.058 120.855 225.058 C 123.341 225.058,123.202 225.271,123.202 221.468 C 123.202 218.223,123.175 218.266,125.056 218.489 C 126.247 218.630,128.559 218.172,130.081 217.495 C 130.484 217.316,130.880 217.169,130.961 217.169 C 131.317 217.169,133.130 215.614,133.393 215.084 C 135.679 210.475,134.571 205.441,130.858 203.572 C 128.672 202.472,125.716 202.183,121.346 202.644 M198.580 202.645 C 195.276 203.036,195.592 201.836,195.592 214.019 C 195.592 226.032,195.383 225.058,197.958 225.058 C 200.138 225.058,199.832 225.688,199.986 220.882 L 200.116 216.821 201.422 216.753 C 202.721 216.684,204.176 217.750,204.176 218.769 C 204.176 218.910,204.257 219.026,204.355 219.026 C 204.454 219.026,204.791 219.495,205.104 220.070 C 205.418 220.644,205.755 221.114,205.854 221.114 C 205.952 221.114,206.032 221.229,206.032 221.370 C 206.032 221.511,206.346 222.022,206.729 222.506 C 207.111 222.989,207.425 223.475,207.425 223.586 C 207.425 224.519,208.617 225.058,210.682 225.058 C 212.075 225.058,212.761 224.971,212.761 224.795 C 212.761 224.537,211.875 222.965,211.602 222.738 C 211.436 222.600,208.343 218.036,207.996 217.417 C 207.863 217.180,207.621 216.826,207.457 216.628 C 207.203 216.322,207.306 216.175,208.162 215.618 C 212.295 212.934,212.614 206.822,208.778 203.812 C 207.299 202.652,202.838 202.141,198.580 202.645 M227.494 202.645 C 223.593 203.521,221.932 205.444,221.931 209.082 C 221.931 212.651,223.431 214.354,227.726 215.658 C 228.492 215.891,229.447 216.222,229.849 216.393 C 230.252 216.565,230.677 216.705,230.795 216.705 C 232.101 216.705,232.473 219.663,231.308 220.780 C 230.535 221.521,226.596 221.765,223.481 221.264 L 222.253 221.067 222.321 222.753 L 222.390 224.439 223.550 224.847 C 226.930 226.033,232.746 225.140,234.820 223.115 C 237.776 220.231,236.617 213.712,232.995 212.847 C 232.649 212.765,232.262 212.618,232.135 212.522 C 232.007 212.426,231.257 212.183,230.469 211.983 C 227.017 211.107,225.600 209.601,226.481 207.744 C 227.190 206.251,231.459 205.531,234.598 206.375 C 235.322 206.570,235.443 206.194,235.312 204.156 L 235.228 202.859 233.449 202.588 C 231.331 202.265,229.088 202.287,227.494 202.645 M247.100 202.655 C 241.900 203.490,238.732 207.780,238.753 213.954 C 238.780 221.570,242.766 225.470,250.295 225.250 C 254.108 225.138,254.292 225.033,254.292 222.955 L 254.292 221.428 250.754 221.445 C 246.942 221.463,246.624 221.379,245.301 220.007 C 243.092 217.715,242.762 211.426,244.699 208.555 C 246.167 206.380,248.899 205.689,253.596 206.305 C 254.170 206.380,254.176 206.362,254.176 204.640 L 254.176 202.900 252.436 202.625 C 250.312 202.289,249.349 202.294,247.100 202.655 M313.341 202.643 C 307.437 203.501,304.210 208.952,305.242 216.321 C 305.543 218.470,305.752 219.185,306.570 220.865 C 307.902 223.600,311.450 225.283,315.893 225.286 C 320.028 225.288,320.640 225.000,320.646 223.047 C 320.651 221.248,320.581 221.160,319.305 221.370 C 312.453 222.499,309.903 220.484,309.875 213.921 C 309.857 209.593,311.107 207.048,313.485 206.572 C 313.858 206.498,314.219 206.346,314.288 206.235 C 314.473 205.935,318.248 205.990,319.307 206.307 C 320.495 206.663,320.673 206.401,320.593 204.408 L 320.534 202.900 318.677 202.625 C 316.432 202.293,315.739 202.295,313.341 202.643 M91.471 213.856 L 91.531 224.942 93.387 224.942 L 95.244 224.942 95.302 217.865 C 95.335 213.973,95.411 210.656,95.471 210.494 C 95.626 210.079,96.480 210.627,96.654 211.252 C 96.725 211.508,96.951 212.082,97.155 212.529 C 97.359 212.976,97.654 213.654,97.811 214.037 C 97.967 214.420,98.205 214.994,98.339 215.313 C 99.118 217.167,99.585 218.268,99.768 218.677 C 100.638 220.630,100.928 221.353,100.928 221.565 C 100.928 222.127,104.825 221.862,105.000 221.288 C 105.088 221.001,105.362 220.296,105.609 219.722 C 105.856 219.147,106.168 218.416,106.302 218.097 C 106.436 217.778,106.678 217.204,106.840 216.821 C 107.002 216.439,107.317 215.655,107.541 215.081 C 107.764 214.507,108.083 213.724,108.249 213.341 C 108.898 211.843,109.236 210.999,109.387 210.499 C 109.479 210.192,109.729 209.977,109.992 209.977 C 110.426 209.977,110.441 210.215,110.441 217.150 C 110.441 225.776,110.249 225.058,112.549 225.058 C 114.852 225.058,114.644 226.256,114.566 213.457 L 114.501 202.900 111.717 202.843 L 108.933 202.785 108.562 203.655 C 108.358 204.133,108.006 204.994,107.779 205.568 C 107.552 206.143,107.229 206.926,107.061 207.309 C 106.893 207.691,106.429 208.840,106.030 209.861 C 105.136 212.145,104.685 213.219,104.397 213.744 C 104.276 213.966,104.176 214.267,104.176 214.415 C 104.176 215.470,102.883 217.056,102.639 216.299 C 102.566 216.076,102.371 215.580,102.205 215.197 C 102.039 214.814,101.743 214.136,101.548 213.689 C 101.354 213.242,101.023 212.459,100.814 211.949 C 100.236 210.542,99.980 209.928,99.652 209.165 C 99.488 208.782,98.828 207.216,98.185 205.684 L 97.017 202.900 94.214 202.835 L 91.411 202.770 91.471 213.856 M137.742 202.939 C 137.070 203.611,137.762 220.222,138.493 220.952 C 138.633 221.092,138.747 221.358,138.747 221.542 C 138.747 221.966,140.315 223.898,140.659 223.898 C 140.799 223.898,141.080 224.039,141.281 224.210 C 143.368 225.991,150.355 225.532,152.692 223.460 C 154.996 221.419,155.220 220.282,155.220 210.679 L 155.220 202.767 153.074 202.834 L 150.928 202.900 150.812 210.905 C 150.664 221.127,150.523 221.462,146.391 221.461 C 142.397 221.460,141.995 220.409,141.995 209.965 L 141.995 202.784 139.946 202.784 C 138.819 202.784,137.827 202.854,137.742 202.939 M157.541 204.638 L 157.541 206.497 160.626 206.497 C 162.717 206.497,163.802 206.586,163.991 206.775 C 164.198 206.982,164.269 209.363,164.269 216.056 L 164.269 225.058 166.332 225.058 C 168.921 225.058,168.677 226.047,168.677 215.551 C 168.677 207.765,168.719 206.762,169.044 206.637 C 169.246 206.560,170.765 206.497,172.419 206.497 L 175.426 206.497 175.358 204.698 L 175.290 202.900 166.415 202.839 L 157.541 202.779 157.541 204.638 M177.884 202.936 C 177.548 203.272,177.703 224.518,178.044 224.801 C 178.270 224.988,180.403 225.047,185.411 225.003 L 192.459 224.942 192.459 223.202 L 192.459 221.462 187.355 221.346 L 182.251 221.230 182.184 218.711 C 182.096 215.358,181.847 215.545,186.409 215.545 C 190.728 215.545,190.719 215.549,190.719 213.689 C 190.719 211.829,190.728 211.833,186.409 211.833 C 181.875 211.833,182.094 211.985,182.184 208.898 L 182.251 206.613 186.989 206.550 C 192.544 206.476,192.389 206.538,192.295 204.430 L 192.227 202.900 185.135 202.839 C 181.234 202.805,177.971 202.849,177.884 202.936 M257.240 202.931 C 256.970 203.200,257.044 224.100,257.317 224.609 C 257.708 225.341,261.191 225.278,261.371 224.536 C 261.441 224.249,261.469 219.263,261.433 213.457 L 261.369 202.900 259.386 202.834 C 258.295 202.797,257.329 202.841,257.240 202.931 M265.717 213.863 L 265.777 224.942 272.826 225.003 C 280.913 225.074,280.510 225.175,280.510 223.082 C 280.510 221.246,280.826 221.346,275.033 221.346 L 270.290 221.346 270.064 220.751 C 269.764 219.961,269.774 216.562,270.078 215.994 C 270.301 215.577,270.601 215.545,274.345 215.545 C 278.878 215.545,278.654 215.642,278.654 213.689 C 278.654 211.736,278.878 211.833,274.345 211.833 C 269.605 211.833,269.836 211.978,269.841 209.006 C 269.846 206.327,269.461 206.516,275.069 206.443 L 279.930 206.381 279.998 204.582 L 280.066 202.784 272.861 202.784 L 265.657 202.784 265.717 213.863 M283.527 213.930 L 283.527 225.076 285.557 225.009 L 287.587 224.942 287.703 218.097 C 287.767 214.333,287.907 211.117,288.014 210.952 C 288.223 210.628,288.863 210.973,288.863 211.409 C 288.863 211.527,289.261 212.223,289.747 212.955 C 290.234 213.687,290.705 214.439,290.794 214.626 C 290.883 214.812,291.163 215.278,291.414 215.661 C 291.666 216.044,291.980 216.566,292.111 216.821 C 292.243 217.077,292.531 217.561,292.753 217.899 C 292.974 218.236,293.654 219.333,294.263 220.335 C 294.872 221.338,295.472 222.314,295.597 222.506 C 295.722 222.697,295.917 223.063,296.031 223.318 C 296.674 224.769,297.308 225.081,299.475 225.009 L 301.508 224.942 301.568 213.863 L 301.629 202.784 299.538 202.784 L 297.448 202.784 297.444 209.803 C 297.442 213.663,297.351 216.963,297.241 217.136 C 297.030 217.470,297.023 217.464,296.404 216.436 C 296.276 216.224,295.539 215.024,294.766 213.768 C 293.993 212.512,293.284 211.328,293.191 211.137 C 293.002 210.749,292.730 210.299,291.858 208.933 C 291.532 208.422,291.194 207.848,291.106 207.657 C 291.018 207.465,290.765 207.035,290.543 206.701 C 290.321 206.367,289.684 205.349,289.127 204.439 L 288.114 202.784 285.820 202.784 L 283.527 202.784 283.527 213.930 M323.490 213.863 L 323.550 224.942 330.679 225.003 L 337.809 225.065 337.943 224.527 C 338.018 224.231,338.046 223.420,338.007 222.725 L 337.935 221.462 332.947 221.346 L 327.958 221.230 327.958 218.445 L 327.958 215.661 332.135 215.526 C 337.078 215.367,336.427 215.645,336.427 213.689 C 336.427 211.733,337.078 212.012,332.135 211.852 L 327.958 211.717 327.958 209.165 L 327.958 206.613 332.831 206.497 L 337.703 206.381 337.771 204.582 L 337.839 202.784 330.634 202.784 L 323.429 202.784 323.490 213.863 M128.221 206.464 C 129.578 207.145,130.162 208.351,130.162 210.471 C 130.162 213.780,128.949 214.907,125.497 214.800 L 123.318 214.733 123.255 210.401 C 123.182 205.412,122.988 205.778,125.638 205.905 C 126.685 205.956,127.603 206.155,128.221 206.464 M205.881 206.497 C 208.043 208.394,207.819 211.682,205.446 212.877 C 204.355 213.427,200.970 213.509,200.357 213.001 C 199.887 212.610,199.828 206.532,200.290 206.062 C 200.862 205.480,205.098 205.809,205.881 206.497 M80.265 206.564 C 84.058 208.451,84.611 217.802,81.107 220.827 C 79.218 222.459,74.024 221.408,74.012 219.393 C 74.012 219.255,73.835 218.828,73.621 218.445 C 73.049 217.425,73.043 210.242,73.613 209.049 C 74.867 206.424,77.789 205.333,80.265 206.564 " stroke="none" fill="#212121" fill-rule="evenodd"></path><path id="path1" d="M167.246 30.833 C 145.431 52.715,140.178 58.099,140.058 58.703 C 139.934 59.321,139.823 59.429,139.420 59.324 C 138.948 59.200,100.812 97.106,100.812 97.699 C 100.812 97.944,191.941 189.152,193.536 190.503 C 194.128 191.005,194.702 191.414,194.812 191.412 C 194.922 191.410,216.154 170.320,241.995 144.544 L 288.978 97.679 241.995 50.696 C 216.154 24.855,194.848 3.712,194.648 3.712 C 194.448 3.712,182.117 15.917,167.246 30.833 M239.606 52.956 C 264.146 77.489,284.198 97.637,284.165 97.731 C 283.957 98.340,194.966 187.007,194.564 187.007 C 194.247 187.007,179.517 172.426,149.488 142.385 L 104.883 97.762 149.599 53.059 C 174.193 28.473,194.467 8.356,194.652 8.355 C 194.837 8.354,215.067 28.424,239.606 52.956 M169.546 35.423 C 137.389 67.511,137.309 67.590,121.712 83.238 L 107.809 97.185 108.603 97.536 C 109.039 97.729,110.963 98.378,112.877 98.977 C 114.791 99.577,117.558 100.458,119.026 100.936 C 120.493 101.413,123.730 102.449,126.218 103.237 C 128.706 104.025,131.160 104.811,131.671 104.984 C 132.181 105.157,134.635 105.944,137.123 106.733 C 139.611 107.522,142.378 108.408,143.271 108.702 C 144.165 108.996,147.401 110.038,150.464 111.018 C 153.527 111.998,157.807 113.373,159.977 114.074 C 162.146 114.775,164.415 115.505,165.018 115.696 C 166.237 116.082,166.589 115.985,166.589 115.262 C 166.589 114.785,166.976 113.268,167.647 111.106 C 167.831 110.514,167.981 109.803,167.981 109.524 C 167.981 109.246,168.089 108.818,168.220 108.573 C 168.351 108.328,168.557 107.682,168.677 107.138 C 168.951 105.899,169.476 103.785,169.960 101.972 C 170.165 101.206,170.429 100.162,170.547 99.652 C 170.666 99.142,170.863 98.358,170.985 97.912 C 171.369 96.510,171.871 94.604,172.267 93.039 C 172.477 92.210,172.791 91.009,172.965 90.371 C 173.139 89.733,173.452 88.532,173.662 87.703 C 173.872 86.874,174.141 85.876,174.259 85.487 C 174.378 85.097,174.574 84.314,174.696 83.747 C 174.818 83.179,175.072 82.140,175.261 81.439 C 176.110 78.285,177.079 74.509,177.273 73.592 C 177.390 73.042,177.542 72.500,177.610 72.390 C 177.679 72.279,177.824 71.738,177.933 71.187 C 178.043 70.636,178.367 69.350,178.655 68.329 C 178.942 67.309,179.261 66.108,179.364 65.661 C 179.467 65.215,179.865 63.648,180.248 62.181 C 182.068 55.222,182.408 53.904,182.527 53.364 C 182.598 53.045,182.916 51.897,183.234 50.812 C 183.552 49.727,183.899 48.344,184.004 47.738 C 184.109 47.133,184.265 46.523,184.351 46.385 C 184.436 46.246,184.640 45.541,184.802 44.818 C 184.965 44.095,185.315 42.668,185.579 41.647 C 185.844 40.626,186.279 38.904,186.547 37.819 C 186.815 36.734,187.490 34.072,188.049 31.903 C 188.607 29.733,189.534 26.131,190.109 23.898 C 192.713 13.780,193.037 12.450,192.924 12.336 C 192.858 12.270,182.337 22.659,169.546 35.423 M195.704 14.937 C 195.515 15.391,195.360 15.910,195.360 16.091 C 195.360 16.272,195.212 16.928,195.031 17.549 C 194.850 18.170,194.544 19.304,194.352 20.070 C 194.160 20.835,193.875 21.932,193.719 22.506 C 193.562 23.080,193.353 23.915,193.253 24.362 C 193.153 24.809,192.742 26.427,192.339 27.958 C 191.937 29.490,191.470 31.317,191.303 32.019 C 191.032 33.156,189.120 40.552,188.634 42.343 C 187.592 46.184,186.684 49.705,186.540 50.464 C 186.443 50.974,185.732 53.846,184.960 56.845 C 182.587 66.068,180.206 75.349,177.609 85.499 C 176.891 88.306,175.636 93.213,174.820 96.404 C 174.003 99.594,172.967 103.614,172.517 105.336 C 170.995 111.161,170.477 113.439,170.602 113.764 C 170.740 114.125,172.606 114.065,173.939 113.658 C 174.344 113.534,175.388 113.337,176.259 113.221 C 179.259 112.820,181.093 112.537,182.135 112.314 C 183.627 111.995,185.937 111.616,187.819 111.381 C 188.712 111.269,189.737 111.064,190.096 110.925 C 190.456 110.787,191.186 110.672,191.720 110.670 C 192.254 110.669,193.204 110.512,193.830 110.322 C 194.457 110.132,195.396 109.976,195.919 109.974 C 196.441 109.973,197.380 109.816,198.007 109.626 C 198.633 109.436,199.540 109.281,200.022 109.281 C 200.504 109.281,201.177 109.174,201.519 109.045 C 201.861 108.915,202.886 108.709,203.796 108.587 C 204.707 108.466,206.392 108.207,207.541 108.012 C 208.689 107.817,210.278 107.564,211.071 107.449 C 211.864 107.334,213.013 107.131,213.623 106.999 C 214.961 106.709,217.435 106.297,219.490 106.023 C 220.319 105.912,221.362 105.713,221.808 105.579 C 222.254 105.446,222.985 105.335,223.432 105.334 C 223.880 105.333,224.758 105.176,225.385 104.986 C 226.011 104.796,226.951 104.639,227.473 104.638 C 227.995 104.636,228.935 104.480,229.561 104.290 C 230.188 104.100,231.086 103.944,231.557 103.944 C 232.028 103.944,232.716 103.843,233.086 103.718 C 233.456 103.594,234.542 103.387,235.499 103.258 C 236.456 103.129,238.179 102.856,239.327 102.652 C 240.476 102.448,241.990 102.203,242.691 102.107 C 243.393 102.011,244.594 101.813,245.360 101.667 C 246.125 101.521,247.378 101.283,248.144 101.137 C 248.910 100.992,250.240 100.787,251.101 100.683 C 251.962 100.578,252.772 100.427,252.900 100.348 C 253.029 100.269,253.838 100.115,254.699 100.006 C 256.705 99.753,259.203 99.342,260.643 99.029 C 261.264 98.893,262.360 98.700,263.079 98.600 C 263.797 98.499,265.377 98.246,266.589 98.038 C 267.802 97.829,269.552 97.556,270.479 97.430 C 271.405 97.305,272.430 97.101,272.756 96.977 C 273.082 96.853,273.740 96.752,274.219 96.752 C 275.128 96.752,277.468 96.149,277.805 95.828 C 277.981 95.661,196.801 14.378,196.271 14.191 C 196.149 14.148,195.894 14.484,195.704 14.937 M186.635 23.395 C 186.700 23.501,186.505 24.571,186.201 25.773 C 185.283 29.402,182.407 40.608,181.948 42.343 C 181.712 43.237,181.337 44.751,181.115 45.708 C 180.713 47.441,180.320 48.953,179.697 51.160 C 179.517 51.798,178.835 54.461,178.182 57.077 C 177.529 59.693,176.525 63.660,175.952 65.893 C 175.378 68.126,174.827 70.319,174.728 70.766 C 174.628 71.212,174.419 72.048,174.263 72.622 C 174.107 73.196,173.823 74.292,173.633 75.058 C 173.443 75.824,173.191 76.769,173.072 77.158 C 172.954 77.548,172.758 78.331,172.637 78.898 C 172.517 79.466,172.092 81.183,171.694 82.715 C 171.295 84.246,170.871 85.963,170.750 86.531 C 170.629 87.098,170.434 87.881,170.315 88.271 C 170.197 88.660,169.930 89.658,169.723 90.487 C 169.516 91.317,169.201 92.517,169.023 93.155 C 168.845 93.794,168.646 94.577,168.581 94.896 C 168.428 95.640,167.871 97.871,167.393 99.652 C 167.188 100.418,166.871 101.644,166.689 102.378 C 166.506 103.112,166.195 104.365,165.997 105.162 C 165.798 105.960,165.555 106.978,165.456 107.425 C 165.356 107.871,165.156 108.602,165.011 109.049 C 164.866 109.495,164.689 110.242,164.618 110.708 C 164.425 111.972,164.046 112.179,162.711 111.753 C 162.101 111.558,159.095 110.601,156.032 109.625 C 152.970 108.649,149.733 107.609,148.840 107.314 C 147.947 107.019,145.180 106.130,142.691 105.339 C 140.203 104.549,137.436 103.659,136.543 103.363 C 135.650 103.067,132.883 102.174,130.394 101.378 C 127.906 100.583,124.200 99.383,122.158 98.712 C 120.116 98.041,117.551 97.220,116.458 96.889 C 112.868 95.800,111.046 98.107,132.019 77.181 C 142.164 67.059,150.621 58.616,150.812 58.418 C 153.629 55.513,186.239 23.203,186.355 23.202 C 186.443 23.202,186.569 23.289,186.635 23.395 M110.209 100.228 C 110.209 100.539,191.646 181.981,191.801 181.826 C 191.919 181.709,189.808 176.393,176.450 143.155 C 173.296 135.307,169.778 126.537,168.632 123.666 C 166.321 117.873,166.290 117.821,164.903 117.423 C 164.363 117.267,162.198 116.582,160.093 115.900 C 157.987 115.218,154.229 114.014,151.740 113.225 C 145.989 111.400,144.596 110.953,139.907 109.428 C 137.802 108.743,134.513 107.690,132.599 107.087 C 130.684 106.484,128.753 105.853,128.306 105.684 C 127.860 105.516,125.928 104.890,124.014 104.293 C 122.100 103.696,120.352 103.112,120.131 102.996 C 119.909 102.879,119.544 102.784,119.319 102.783 C 119.094 102.782,118.610 102.625,118.245 102.435 C 117.879 102.244,117.410 102.088,117.201 102.087 C 116.992 102.086,116.522 101.929,116.157 101.739 C 115.791 101.548,115.299 101.392,115.063 101.392 C 114.826 101.392,114.290 101.248,113.871 101.071 C 111.743 100.176,110.209 99.823,110.209 100.228 M273.752 101.499 C 273.652 101.599,272.256 101.852,267.285 102.668 C 266.201 102.846,264.374 103.159,263.225 103.363 C 262.077 103.567,260.510 103.820,259.745 103.926 C 258.979 104.031,257.778 104.231,257.077 104.370 C 256.375 104.510,254.835 104.784,253.654 104.980 C 250.554 105.495,247.487 106.012,245.360 106.380 C 244.339 106.556,243.190 106.750,242.807 106.810 C 242.425 106.871,241.119 107.090,239.907 107.297 C 238.695 107.504,237.024 107.775,236.195 107.899 C 235.365 108.023,234.165 108.222,233.527 108.342 C 231.949 108.638,228.878 109.176,226.218 109.622 C 225.006 109.826,223.126 110.144,222.042 110.329 C 220.957 110.515,218.765 110.882,217.169 111.145 C 215.574 111.409,212.442 111.936,210.209 112.316 C 207.976 112.697,205.261 113.153,204.176 113.329 C 203.092 113.506,195.940 114.710,188.283 116.005 C 180.626 117.300,173.553 118.491,172.565 118.652 C 171.577 118.814,170.692 119.021,170.600 119.114 C 170.445 119.269,171.317 122.083,171.687 122.622 C 171.774 122.749,172.034 123.376,172.263 124.014 C 172.493 124.652,172.819 125.487,172.988 125.870 C 173.157 126.253,174.087 128.550,175.055 130.974 C 176.024 133.399,176.911 135.592,177.028 135.847 C 177.144 136.102,177.613 137.251,178.071 138.399 C 178.528 139.548,178.996 140.696,179.110 140.951 C 179.224 141.206,179.837 142.720,180.471 144.316 C 182.276 148.858,184.212 153.667,184.439 154.176 C 184.553 154.432,184.974 155.476,185.375 156.497 C 185.776 157.517,186.199 158.561,186.316 158.817 C 186.508 159.238,190.957 170.288,194.142 178.257 C 194.846 180.017,195.504 181.426,195.604 181.390 C 196.050 181.226,275.870 101.800,275.870 101.520 C 275.870 101.366,273.904 101.347,273.752 101.499 M122.219 106.942 C 122.441 107.060,123.718 107.487,125.058 107.891 C 126.398 108.296,127.860 108.762,128.306 108.928 C 128.753 109.094,129.745 109.412,130.510 109.634 C 131.276 109.856,132.268 110.170,132.715 110.332 C 133.161 110.493,135.093 111.120,137.007 111.725 C 138.921 112.330,140.696 112.904,140.951 113.002 C 141.206 113.099,143.451 113.830,145.940 114.626 C 148.428 115.422,153.492 117.077,157.193 118.304 L 163.921 120.534 164.527 122.042 C 165.536 124.550,170.865 137.714,172.277 141.183 C 173.004 142.970,174.360 146.311,175.290 148.608 C 176.220 150.905,177.997 155.290,179.237 158.353 C 180.478 161.415,181.908 164.947,182.414 166.202 C 183.368 168.565,183.407 168.945,182.641 168.408 C 181.719 167.762,120.910 107.010,121.048 106.872 C 121.254 106.665,121.754 106.696,122.219 106.942 M60.441 202.101 C 59.803 202.212,58.889 202.370,58.410 202.453 C 54.605 203.109,51.649 206.885,51.077 211.817 C 50.355 218.046,52.309 222.636,56.520 224.605 C 59.267 225.889,65.893 226.030,66.869 224.825 C 67.817 223.654,67.228 220.326,66.153 220.783 C 61.523 222.750,57.326 220.679,56.481 216.009 C 55.318 209.578,58.372 205.720,63.996 206.516 C 67.110 206.957,67.285 206.864,67.285 204.780 C 67.285 203.692,67.180 202.990,66.995 202.843 C 66.128 202.154,62.500 201.744,60.441 202.101 M75.522 202.241 C 71.584 203.448,69.285 205.915,68.420 209.861 C 67.789 212.742,68.041 217.895,68.903 219.711 C 68.997 219.908,69.271 220.483,69.513 220.989 C 70.106 222.226,72.384 224.526,73.222 224.733 C 73.594 224.824,74.144 225.059,74.446 225.254 C 75.306 225.811,80.773 225.773,82.019 225.202 C 84.106 224.244,84.531 223.974,85.348 223.086 C 88.243 219.938,89.306 211.201,87.224 207.657 C 87.112 207.465,86.852 206.977,86.647 206.572 C 84.877 203.071,79.561 201.002,75.522 202.241 M123.086 201.995 C 121.387 202.150,118.913 202.624,118.619 202.850 C 118.395 203.023,118.329 205.544,118.329 214.057 C 118.329 226.715,118.064 225.522,120.882 225.522 C 123.481 225.522,123.434 225.588,123.434 221.918 L 123.434 218.794 125.481 218.794 C 131.654 218.794,134.932 215.736,134.764 210.133 C 134.587 204.218,130.434 201.323,123.086 201.995 M199.536 202.102 C 197.378 202.390,195.966 202.669,195.641 202.870 C 195.427 203.002,195.360 205.691,195.360 214.140 L 195.360 225.236 195.882 225.376 C 196.169 225.453,197.153 225.517,198.069 225.519 C 200.485 225.523,200.464 225.562,200.464 221.144 C 200.464 217.238,200.547 216.933,201.613 216.943 C 202.529 216.951,203.018 217.493,205.435 221.186 C 208.441 225.777,208.128 225.522,210.742 225.522 C 213.842 225.522,213.944 225.224,211.819 222.391 C 211.340 221.752,210.222 220.137,209.336 218.801 L 207.724 216.371 208.249 215.958 C 208.538 215.731,208.851 215.545,208.946 215.545 C 209.705 215.545,211.135 213.295,211.730 211.165 C 212.759 207.478,209.788 202.552,206.535 202.552 C 206.275 202.552,205.818 202.459,205.518 202.345 C 204.664 202.020,201.197 201.879,199.536 202.102 M228.074 202.109 C 227.628 202.239,226.897 202.431,226.450 202.537 C 220.360 203.975,219.522 212.439,225.208 215.084 C 226.768 215.810,227.030 215.907,228.985 216.489 C 231.778 217.320,232.538 218.723,231.116 220.426 C 230.341 221.355,227.628 221.663,225.057 221.116 C 222.395 220.549,222.122 220.552,221.962 221.150 C 221.761 221.898,221.779 224.188,221.987 224.509 C 222.745 225.677,229.480 226.051,232.285 225.081 C 233.905 224.520,236.195 222.608,236.195 221.815 C 236.195 221.608,236.325 221.308,236.485 221.148 C 236.990 220.643,236.868 216.278,236.325 215.429 C 235.675 214.413,233.640 212.529,233.192 212.529 C 232.981 212.529,232.708 212.440,232.587 212.331 C 232.344 212.112,230.113 211.369,229.698 211.369 C 229.144 211.369,226.970 210.225,226.830 209.859 C 225.971 207.620,228.225 206.001,231.671 206.382 C 232.436 206.467,233.689 206.554,234.455 206.575 L 235.847 206.613 235.916 205.045 C 236.000 203.124,235.825 202.787,234.538 202.383 C 233.240 201.976,229.130 201.802,228.074 202.109 M247.912 202.093 C 241.455 203.150,238.525 206.849,238.518 213.952 C 238.510 221.929,242.060 225.537,249.954 225.577 C 254.407 225.599,254.609 225.487,254.707 222.924 C 254.789 220.806,254.511 220.405,253.306 220.909 C 251.137 221.816,247.055 221.237,245.639 219.822 C 243.990 218.173,243.240 211.891,244.437 209.745 C 245.983 206.971,248.069 206.066,251.819 206.539 C 254.799 206.916,254.790 206.922,254.708 204.596 L 254.640 202.687 253.701 202.416 C 252.393 202.038,249.299 201.865,247.912 202.093 M314.733 201.999 C 310.530 202.529,307.363 204.441,306.132 207.193 C 305.933 207.639,305.677 208.213,305.565 208.469 C 304.147 211.684,304.372 217.124,306.066 220.594 C 306.722 221.938,308.773 224.130,309.374 224.130 C 309.494 224.130,309.757 224.265,309.959 224.430 C 311.102 225.368,314.999 225.874,318.429 225.529 C 320.704 225.300,320.882 225.105,320.882 222.838 C 320.882 220.806,320.594 220.423,319.432 220.909 C 316.184 222.267,310.673 220.348,310.673 217.858 C 310.673 217.658,310.562 217.384,310.427 217.249 C 309.975 216.796,310.093 211.340,310.582 210.056 C 311.648 207.262,314.266 205.950,317.680 206.500 C 318.612 206.649,319.687 206.736,320.070 206.692 L 320.766 206.613 320.766 204.651 L 320.766 202.689 319.838 202.421 C 318.783 202.116,315.777 201.868,314.733 201.999 M64.543 202.583 L 66.589 202.845 66.589 204.698 C 66.589 206.513,66.579 206.547,66.067 206.386 C 59.016 204.167,54.039 209.882,56.391 217.497 C 57.395 220.749,58.651 221.468,63.283 221.446 L 66.589 221.430 66.589 222.983 C 66.589 225.100,66.502 225.155,62.922 225.257 C 58.263 225.390,55.414 224.294,53.222 221.527 C 51.456 219.297,50.766 212.757,51.933 209.302 C 53.246 205.413,55.792 203.210,59.629 202.643 C 62.028 202.288,62.227 202.285,64.543 202.583 M80.449 202.573 C 86.315 203.917,89.437 210.754,87.486 217.981 C 86.393 222.029,85.562 223.023,81.635 224.983 C 80.713 225.443,75.842 225.399,74.745 224.921 C 72.445 223.918,71.877 223.567,71.112 222.673 C 68.664 219.813,67.539 211.880,69.119 208.621 C 69.221 208.410,69.498 207.819,69.734 207.309 C 70.721 205.175,73.532 202.810,75.133 202.768 C 75.474 202.759,75.963 202.662,76.218 202.552 C 76.884 202.266,79.157 202.277,80.449 202.573 M91.345 202.468 C 91.256 202.557,91.183 207.726,91.183 213.955 L 91.183 225.281 91.767 225.428 C 92.517 225.616,95.509 225.450,95.753 225.206 C 95.856 225.104,95.970 222.001,96.008 218.310 C 96.079 211.291,96.135 210.911,96.832 212.704 C 97.067 213.310,97.396 214.118,97.563 214.501 C 97.729 214.884,98.022 215.563,98.214 216.009 C 98.405 216.456,98.721 217.187,98.916 217.633 C 99.110 218.080,99.421 218.811,99.605 219.258 C 100.702 221.912,100.756 221.996,101.456 222.136 C 103.134 222.471,105.336 222.151,105.336 221.571 C 105.336 221.433,105.551 220.830,105.813 220.231 C 106.421 218.842,106.523 218.598,107.426 216.357 C 107.838 215.336,108.307 214.188,108.470 213.805 C 108.632 213.422,108.933 212.714,109.139 212.231 C 109.345 211.748,109.513 211.194,109.513 210.999 C 109.513 210.805,109.617 210.710,109.745 210.789 C 109.891 210.879,109.977 213.539,109.977 218.001 L 109.977 225.069 110.572 225.296 C 111.417 225.617,114.234 225.580,114.571 225.244 C 114.972 224.843,114.972 203.000,114.571 202.599 C 114.262 202.290,109.347 202.203,108.915 202.498 C 108.606 202.709,108.065 203.731,107.536 205.104 C 107.315 205.679,107.000 206.462,106.837 206.845 C 106.673 207.227,106.359 208.010,106.138 208.585 C 105.774 209.534,105.410 210.441,104.881 211.717 C 104.775 211.972,104.460 212.755,104.181 213.457 C 102.940 216.582,103.114 216.529,102.123 214.092 C 101.696 213.041,101.211 211.868,101.045 211.485 C 100.880 211.102,100.635 210.528,100.501 210.209 C 100.367 209.890,100.037 209.107,99.768 208.469 C 98.925 206.471,98.799 206.167,98.510 205.452 C 98.356 205.070,97.975 204.234,97.665 203.596 L 97.100 202.436 94.303 202.371 C 92.765 202.336,91.434 202.379,91.345 202.468 M127.494 202.633 C 131.450 203.196,133.320 204.636,134.185 207.788 C 134.863 210.262,134.605 212.640,133.393 215.084 C 133.130 215.614,131.317 217.169,130.961 217.169 C 130.880 217.169,130.484 217.316,130.081 217.495 C 128.559 218.172,126.247 218.630,125.056 218.489 C 123.175 218.266,123.202 218.223,123.202 221.468 C 123.202 225.271,123.341 225.058,120.855 225.058 L 118.789 225.058 118.849 213.979 L 118.910 202.900 121.346 202.644 C 124.668 202.294,125.099 202.293,127.494 202.633 M137.639 202.515 C 137.245 202.765,137.354 218.665,137.760 220.070 C 138.732 223.434,140.742 225.059,144.533 225.545 C 146.674 225.820,150.191 225.540,150.674 225.057 C 150.801 224.930,151.042 224.826,151.209 224.826 C 152.089 224.826,154.756 222.115,154.756 221.220 C 154.756 221.021,154.930 220.524,155.141 220.116 C 155.603 219.225,155.872 203.569,155.440 202.760 C 155.191 202.295,151.532 202.091,150.879 202.506 C 150.670 202.639,150.581 204.709,150.531 210.565 C 150.446 220.543,150.197 221.206,146.540 221.197 C 142.778 221.188,142.486 220.352,142.470 209.501 C 142.462 204.670,142.384 202.802,142.181 202.599 C 141.864 202.282,138.115 202.213,137.639 202.515 M204.756 202.649 C 206.852 202.963,208.189 203.349,208.778 203.812 C 212.614 206.822,212.295 212.934,208.162 215.618 C 207.306 216.175,207.203 216.322,207.457 216.628 C 207.621 216.826,207.863 217.180,207.996 217.417 C 208.343 218.036,211.436 222.600,211.602 222.738 C 211.875 222.965,212.761 224.537,212.761 224.795 C 212.761 224.971,212.075 225.058,210.682 225.058 C 208.617 225.058,207.425 224.519,207.425 223.586 C 207.425 223.475,207.111 222.989,206.729 222.506 C 206.346 222.022,206.032 221.511,206.032 221.370 C 206.032 221.229,205.952 221.114,205.854 221.114 C 205.755 221.114,205.418 220.644,205.104 220.070 C 204.791 219.495,204.454 219.026,204.355 219.026 C 204.257 219.026,204.176 218.910,204.176 218.769 C 204.176 217.750,202.721 216.684,201.422 216.753 L 200.116 216.821 199.986 220.882 C 199.832 225.688,200.138 225.058,197.958 225.058 C 195.383 225.058,195.592 226.032,195.592 214.019 C 195.592 201.836,195.276 203.036,198.580 202.645 C 201.612 202.286,202.335 202.287,204.756 202.649 M233.449 202.588 L 235.228 202.859 235.312 204.156 C 235.443 206.194,235.322 206.570,234.598 206.375 C 231.459 205.531,227.190 206.251,226.481 207.744 C 225.600 209.601,227.017 211.107,230.469 211.983 C 231.257 212.183,232.007 212.426,232.135 212.522 C 232.262 212.618,232.649 212.765,232.995 212.847 C 236.617 213.712,237.776 220.231,234.820 223.115 C 232.746 225.140,226.930 226.033,223.550 224.847 L 222.390 224.439 222.321 222.753 L 222.253 221.067 223.481 221.264 C 226.596 221.765,230.535 221.521,231.308 220.780 C 232.473 219.663,232.101 216.705,230.795 216.705 C 230.677 216.705,230.252 216.565,229.849 216.393 C 229.447 216.222,228.492 215.891,227.726 215.658 C 223.431 214.354,221.931 212.651,221.931 209.082 C 221.932 203.927,226.250 201.492,233.449 202.588 M252.436 202.625 L 254.176 202.900 254.176 204.640 C 254.176 206.362,254.170 206.380,253.596 206.305 C 248.899 205.689,246.167 206.380,244.699 208.555 C 242.762 211.426,243.092 217.715,245.301 220.007 C 246.624 221.379,246.942 221.463,250.754 221.445 L 254.292 221.428 254.292 222.955 C 254.292 225.033,254.108 225.138,250.295 225.250 C 242.766 225.470,238.780 221.570,238.753 213.954 C 238.725 205.773,244.117 201.308,252.436 202.625 M257.019 202.571 C 256.555 202.841,256.384 224.337,256.840 225.058 C 257.121 225.503,260.727 225.696,261.458 225.305 C 262.197 224.909,262.238 202.955,261.500 202.560 C 260.925 202.252,257.552 202.260,257.019 202.571 M265.476 202.599 C 264.928 203.146,265.092 224.985,265.646 225.282 C 266.343 225.655,279.845 225.605,280.361 225.227 C 280.696 224.982,280.752 224.623,280.695 223.081 L 280.626 221.230 275.754 221.169 C 269.985 221.098,270.302 221.263,270.302 218.310 C 270.302 215.847,269.993 216.009,274.683 216.009 C 279.002 216.009,278.886 216.073,278.886 213.689 C 278.886 211.305,279.002 211.369,274.683 211.369 C 269.990 211.369,270.302 211.534,270.302 209.049 C 270.302 206.539,269.864 206.729,275.649 206.729 C 280.968 206.729,280.742 206.830,280.742 204.440 C 280.742 202.214,281.138 202.320,272.884 202.320 C 267.648 202.320,265.680 202.394,265.476 202.599 M283.449 202.475 C 283.364 202.560,283.295 207.726,283.295 213.955 L 283.295 225.281 283.878 225.428 C 284.628 225.616,287.621 225.450,287.865 225.206 C 287.967 225.104,288.103 221.922,288.167 218.136 L 288.283 211.253 289.546 213.341 C 290.240 214.490,290.893 215.464,290.996 215.507 C 291.099 215.549,291.183 215.688,291.183 215.815 C 291.183 216.056,293.951 220.680,294.217 220.882 C 294.300 220.945,294.442 221.233,294.532 221.520 C 294.622 221.807,294.792 222.042,294.911 222.042 C 295.030 222.042,295.128 222.165,295.128 222.317 C 295.128 222.832,296.866 225.251,297.332 225.383 C 298.087 225.599,300.849 225.540,301.493 225.296 L 302.088 225.069 302.088 213.955 C 302.088 201.091,302.364 202.271,299.385 202.369 L 297.332 202.436 297.216 209.629 L 297.100 216.821 295.839 214.733 C 295.145 213.585,294.511 212.593,294.430 212.529 C 294.348 212.465,294.221 212.248,294.147 212.047 C 294.073 211.845,293.613 211.062,293.125 210.307 C 292.638 209.551,292.027 208.557,291.769 208.097 C 289.851 204.681,288.455 202.563,288.051 202.453 C 287.388 202.272,283.634 202.290,283.449 202.475 M318.677 202.625 L 320.534 202.900 320.593 204.408 C 320.673 206.401,320.495 206.663,319.307 206.307 C 318.248 205.990,314.473 205.935,314.288 206.235 C 314.219 206.346,313.858 206.498,313.485 206.572 C 311.107 207.048,309.857 209.593,309.875 213.921 C 309.903 220.484,312.453 222.499,319.305 221.370 C 320.581 221.160,320.651 221.248,320.646 223.047 C 320.640 225.000,320.028 225.288,315.893 225.286 C 311.450 225.283,307.902 223.600,306.570 220.865 C 305.752 219.185,305.543 218.470,305.242 216.321 C 303.904 206.766,309.325 201.240,318.677 202.625 M323.248 202.599 C 322.773 203.074,322.856 224.679,323.334 225.157 C 323.883 225.706,337.601 225.706,338.150 225.157 C 338.599 224.709,338.665 221.821,338.237 221.392 C 338.038 221.193,336.577 221.114,333.137 221.114 C 327.524 221.114,328.007 221.404,328.122 218.097 L 328.190 216.125 332.367 215.996 C 334.664 215.924,336.573 215.846,336.610 215.822 C 336.646 215.797,336.646 214.811,336.610 213.631 L 336.543 211.485 332.367 211.369 L 328.190 211.253 328.190 209.049 L 328.190 206.845 333.052 206.782 C 338.607 206.710,338.274 206.854,338.280 204.513 C 338.285 202.178,338.782 202.320,330.626 202.320 C 325.414 202.320,323.453 202.394,323.248 202.599 M157.185 203.081 C 157.112 203.372,157.083 204.286,157.122 205.112 L 157.193 206.613 160.499 206.677 L 163.805 206.741 163.805 215.683 C 163.805 221.403,163.892 224.786,164.045 225.073 C 164.290 225.530,167.570 225.754,168.543 225.381 C 168.869 225.256,168.910 224.221,168.910 216.100 C 168.910 211.074,168.936 206.945,168.968 206.925 C 168.999 206.906,170.539 206.828,172.390 206.751 L 175.754 206.613 175.823 204.909 C 175.925 202.355,176.718 202.552,166.333 202.552 L 157.317 202.552 157.185 203.081 M177.552 202.704 C 177.193 202.851,177.132 224.492,177.489 225.058 C 177.782 225.522,191.945 225.717,192.491 225.264 C 192.743 225.055,192.809 224.523,192.758 223.108 L 192.691 221.230 187.764 221.167 C 182.035 221.094,182.532 221.392,182.646 218.097 L 182.715 216.125 186.726 216.009 C 191.374 215.875,191.175 215.986,191.180 213.529 C 191.184 211.413,191.383 211.508,186.659 211.369 L 182.715 211.253 182.715 209.049 L 182.715 206.845 187.453 206.782 C 193.072 206.707,192.849 206.806,192.759 204.430 L 192.691 202.668 185.267 202.627 C 181.183 202.604,177.712 202.639,177.552 202.704 M98.185 205.684 C 98.828 207.216,99.488 208.782,99.652 209.165 C 99.980 209.928,100.236 210.542,100.814 211.949 C 101.023 212.459,101.354 213.242,101.548 213.689 C 101.743 214.136,102.039 214.814,102.205 215.197 C 102.371 215.580,102.566 216.076,102.639 216.299 C 102.883 217.056,104.176 215.470,104.176 214.415 C 104.176 214.267,104.276 213.966,104.397 213.744 C 104.685 213.219,105.136 212.145,106.030 209.861 C 106.429 208.840,106.893 207.691,107.061 207.309 C 107.229 206.926,107.552 206.143,107.779 205.568 C 108.006 204.994,108.358 204.133,108.562 203.655 L 108.933 202.785 111.717 202.843 L 114.501 202.900 114.566 213.457 C 114.644 226.256,114.852 225.058,112.549 225.058 C 110.249 225.058,110.441 225.776,110.441 217.150 C 110.441 210.215,110.426 209.977,109.992 209.977 C 109.729 209.977,109.479 210.192,109.387 210.499 C 109.236 210.999,108.898 211.843,108.249 213.341 C 108.083 213.724,107.764 214.507,107.541 215.081 C 107.317 215.655,107.002 216.439,106.840 216.821 C 106.678 217.204,106.436 217.778,106.302 218.097 C 106.168 218.416,105.856 219.147,105.609 219.722 C 105.362 220.296,105.088 221.001,105.000 221.288 C 104.825 221.862,100.928 222.127,100.928 221.565 C 100.928 221.353,100.638 220.630,99.768 218.677 C 99.585 218.268,99.118 217.167,98.339 215.313 C 98.205 214.994,97.967 214.420,97.811 214.037 C 97.654 213.654,97.359 212.976,97.155 212.529 C 96.951 212.082,96.725 211.508,96.654 211.252 C 96.480 210.627,95.626 210.079,95.471 210.494 C 95.411 210.656,95.335 213.973,95.302 217.865 L 95.244 224.942 93.387 224.942 L 91.531 224.942 91.471 213.856 L 91.411 202.770 94.214 202.835 L 97.017 202.900 98.185 205.684 M141.995 209.965 C 141.995 220.409,142.397 221.460,146.391 221.461 C 150.523 221.462,150.664 221.127,150.812 210.905 L 150.928 202.900 153.074 202.834 L 155.220 202.767 155.220 210.679 C 155.220 220.282,154.996 221.419,152.692 223.460 C 150.355 225.532,143.368 225.991,141.281 224.210 C 141.080 224.039,140.799 223.898,140.659 223.898 C 140.315 223.898,138.747 221.966,138.747 221.542 C 138.747 221.358,138.633 221.092,138.493 220.952 C 137.762 220.222,137.070 203.611,137.742 202.939 C 137.827 202.854,138.819 202.784,139.946 202.784 L 141.995 202.784 141.995 209.965 M175.358 204.698 L 175.426 206.497 172.419 206.497 C 170.765 206.497,169.246 206.560,169.044 206.637 C 168.719 206.762,168.677 207.765,168.677 215.551 C 168.677 226.047,168.921 225.058,166.332 225.058 L 164.269 225.058 164.269 216.056 C 164.269 209.363,164.198 206.982,163.991 206.775 C 163.802 206.586,162.717 206.497,160.626 206.497 L 157.541 206.497 157.541 204.638 L 157.541 202.779 166.415 202.839 L 175.290 202.900 175.358 204.698 M192.295 204.430 C 192.389 206.538,192.544 206.476,186.989 206.550 L 182.251 206.613 182.184 208.898 C 182.094 211.985,181.875 211.833,186.409 211.833 C 190.728 211.833,190.719 211.829,190.719 213.689 C 190.719 215.549,190.728 215.545,186.409 215.545 C 181.847 215.545,182.096 215.358,182.184 218.711 L 182.251 221.230 187.355 221.346 L 192.459 221.462 192.459 223.202 L 192.459 224.942 185.411 225.003 C 180.403 225.047,178.270 224.988,178.044 224.801 C 177.703 224.518,177.548 203.272,177.884 202.936 C 177.971 202.849,181.234 202.805,185.135 202.839 L 192.227 202.900 192.295 204.430 M261.433 213.457 C 261.469 219.263,261.441 224.249,261.371 224.536 C 261.191 225.278,257.708 225.341,257.317 224.609 C 257.044 224.100,256.970 203.200,257.240 202.931 C 257.329 202.841,258.295 202.797,259.386 202.834 L 261.369 202.900 261.433 213.457 M279.998 204.582 L 279.930 206.381 275.069 206.443 C 269.461 206.516,269.846 206.327,269.841 209.006 C 269.836 211.978,269.605 211.833,274.345 211.833 C 278.878 211.833,278.654 211.736,278.654 213.689 C 278.654 215.642,278.878 215.545,274.345 215.545 C 270.601 215.545,270.301 215.577,270.078 215.994 C 269.774 216.562,269.764 219.961,270.064 220.751 L 270.290 221.346 275.033 221.346 C 280.826 221.346,280.510 221.246,280.510 223.082 C 280.510 225.175,280.913 225.074,272.826 225.003 L 265.777 224.942 265.717 213.863 L 265.657 202.784 272.861 202.784 L 280.066 202.784 279.998 204.582 M289.127 204.439 C 289.684 205.349,290.321 206.367,290.543 206.701 C 290.765 207.035,291.018 207.465,291.106 207.657 C 291.194 207.848,291.532 208.422,291.858 208.933 C 292.730 210.299,293.002 210.749,293.191 211.137 C 293.284 211.328,293.993 212.512,294.766 213.768 C 295.539 215.024,296.276 216.224,296.404 216.436 C 297.023 217.464,297.030 217.470,297.241 217.136 C 297.351 216.963,297.442 213.663,297.444 209.803 L 297.448 202.784 299.538 202.784 L 301.629 202.784 301.568 213.863 L 301.508 224.942 299.475 225.009 C 297.308 225.081,296.674 224.769,296.031 223.318 C 295.917 223.063,295.722 222.697,295.597 222.506 C 295.472 222.314,294.872 221.338,294.263 220.335 C 293.654 219.333,292.974 218.236,292.753 217.899 C 292.531 217.561,292.243 217.077,292.111 216.821 C 291.980 216.566,291.666 216.044,291.414 215.661 C 291.163 215.278,290.883 214.812,290.794 214.626 C 290.705 214.439,290.234 213.687,289.747 212.955 C 289.261 212.223,288.863 211.527,288.863 211.409 C 288.863 210.973,288.223 210.628,288.014 210.952 C 287.907 211.117,287.767 214.333,287.703 218.097 L 287.587 224.942 285.557 225.009 L 283.527 225.076 283.527 213.930 L 283.527 202.784 285.820 202.784 L 288.114 202.784 289.127 204.439 M337.771 204.582 L 337.703 206.381 332.831 206.497 L 327.958 206.613 327.958 209.165 L 327.958 211.717 332.135 211.852 C 337.078 212.012,336.427 211.733,336.427 213.689 C 336.427 215.645,337.078 215.367,332.135 215.526 L 327.958 215.661 327.958 218.445 L 327.958 221.230 332.947 221.346 L 337.935 221.462 338.007 222.725 C 338.046 223.420,338.018 224.231,337.943 224.527 L 337.809 225.065 330.679 225.003 L 323.550 224.942 323.490 213.863 L 323.429 202.784 330.634 202.784 L 337.839 202.784 337.771 204.582 M123.603 205.948 C 123.225 206.059,123.197 206.423,123.255 210.401 L 123.318 214.733 125.497 214.800 C 128.949 214.907,130.162 213.780,130.162 210.471 C 130.162 207.041,127.093 204.924,123.603 205.948 M200.290 206.062 C 199.828 206.532,199.887 212.610,200.357 213.001 C 200.970 213.509,204.355 213.427,205.446 212.877 C 207.819 211.682,208.043 208.394,205.881 206.497 C 205.098 205.809,200.862 205.480,200.290 206.062 M75.993 206.612 C 74.760 207.216,74.230 207.758,73.613 209.049 C 73.043 210.242,73.049 217.425,73.621 218.445 C 73.835 218.828,74.012 219.255,74.012 219.393 C 74.016 220.057,75.722 221.330,76.949 221.585 C 81.124 222.452,83.295 219.830,83.295 213.921 C 83.295 207.629,80.214 204.545,75.993 206.612 M205.515 206.690 C 207.185 207.881,207.426 210.890,205.948 212.087 C 204.934 212.908,202.272 213.173,200.782 212.602 C 200.343 212.433,200.316 206.368,200.754 206.175 C 201.576 205.811,204.767 206.156,205.515 206.690 M81.137 207.468 C 83.804 209.974,83.595 218.462,80.814 220.583 C 79.045 221.933,75.641 221.419,74.626 219.650 C 73.480 217.654,72.948 211.568,73.765 209.806 C 74.628 207.947,74.826 207.634,75.370 207.278 C 76.997 206.211,79.901 206.307,81.137 207.468 M127.262 206.497 C 127.341 206.624,127.590 206.729,127.815 206.729 C 128.760 206.729,129.930 208.787,129.930 210.448 C 129.930 213.237,128.328 214.681,125.357 214.569 L 123.550 214.501 123.487 210.383 L 123.423 206.265 125.271 206.265 C 126.287 206.265,127.183 206.369,127.262 206.497 " stroke="none" fill="#a159c5" fill-rule="evenodd"></path><path id="path2" d="M0.000 116.009 L 0.000 232.019 200.000 232.019 L 400.000 232.019 400.000 116.009 L 400.000 0.000 200.000 0.000 L 0.000 0.000 0.000 116.009 M241.995 50.696 L 288.978 97.679 241.995 144.544 C 216.154 170.320,194.922 191.410,194.812 191.412 C 194.702 191.414,194.128 191.005,193.536 190.503 C 191.941 189.152,100.812 97.944,100.812 97.699 C 100.812 97.106,138.948 59.200,139.420 59.324 C 139.823 59.429,139.934 59.321,140.058 58.703 C 140.228 57.850,193.972 3.712,194.648 3.712 C 194.848 3.712,216.154 24.855,241.995 50.696 M149.599 53.059 L 104.883 97.762 149.488 142.385 C 179.517 172.426,194.247 187.007,194.564 187.007 C 194.966 187.007,283.957 98.340,284.165 97.731 C 284.260 97.455,195.022 8.352,194.652 8.355 C 194.467 8.356,174.193 28.473,149.599 53.059 M192.099 16.147 C 191.579 18.177,190.684 21.665,190.109 23.898 C 189.534 26.131,188.607 29.733,188.049 31.903 C 187.490 34.072,186.815 36.734,186.547 37.819 C 186.279 38.904,185.844 40.626,185.579 41.647 C 185.315 42.668,184.965 44.095,184.802 44.818 C 184.640 45.541,184.436 46.246,184.351 46.385 C 184.265 46.523,184.109 47.133,184.004 47.738 C 183.899 48.344,183.552 49.727,183.234 50.812 C 182.916 51.897,182.598 53.045,182.527 53.364 C 182.408 53.904,182.068 55.222,180.248 62.181 C 179.865 63.648,179.467 65.215,179.364 65.661 C 179.261 66.108,178.942 67.309,178.655 68.329 C 178.367 69.350,178.043 70.636,177.933 71.187 C 177.824 71.738,177.679 72.279,177.610 72.390 C 177.542 72.500,177.390 73.042,177.273 73.592 C 177.079 74.509,176.110 78.285,175.261 81.439 C 175.072 82.140,174.818 83.179,174.696 83.747 C 174.574 84.314,174.378 85.097,174.259 85.487 C 174.141 85.876,173.872 86.874,173.662 87.703 C 173.452 88.532,173.139 89.733,172.965 90.371 C 172.791 91.009,172.477 92.210,172.267 93.039 C 171.871 94.604,171.369 96.510,170.985 97.912 C 170.863 98.358,170.666 99.142,170.547 99.652 C 170.429 100.162,170.165 101.206,169.960 101.972 C 169.476 103.785,168.951 105.899,168.677 107.138 C 168.557 107.682,168.351 108.328,168.220 108.573 C 168.089 108.818,167.981 109.246,167.981 109.524 C 167.981 109.803,167.831 110.514,167.647 111.106 C 166.976 113.268,166.589 114.785,166.589 115.262 C 166.589 115.985,166.237 116.082,165.018 115.696 C 164.415 115.505,162.146 114.775,159.977 114.074 C 157.807 113.373,153.527 111.998,150.464 111.018 C 147.401 110.038,144.165 108.996,143.271 108.702 C 142.378 108.408,139.611 107.522,137.123 106.733 C 134.635 105.944,132.181 105.157,131.671 104.984 C 131.160 104.811,128.706 104.025,126.218 103.237 C 123.730 102.449,120.493 101.413,119.026 100.936 C 117.558 100.458,114.791 99.577,112.877 98.977 C 110.963 98.378,109.039 97.729,108.603 97.536 L 107.809 97.185 121.712 83.238 C 137.309 67.590,137.389 67.511,169.546 35.423 C 182.337 22.659,192.858 12.270,192.924 12.336 C 192.990 12.403,192.619 14.117,192.099 16.147 M237.247 54.956 C 259.661 77.333,277.913 95.726,277.805 95.828 C 277.468 96.149,275.128 96.752,274.219 96.752 C 273.740 96.752,273.082 96.853,272.756 96.977 C 272.430 97.101,271.405 97.305,270.479 97.430 C 269.552 97.556,267.802 97.829,266.589 98.038 C 265.377 98.246,263.797 98.499,263.079 98.600 C 262.360 98.700,261.264 98.893,260.643 99.029 C 259.203 99.342,256.705 99.753,254.699 100.006 C 253.838 100.115,253.029 100.269,252.900 100.348 C 252.772 100.427,251.962 100.578,251.101 100.683 C 250.240 100.787,248.910 100.992,248.144 101.137 C 247.378 101.283,246.125 101.521,245.360 101.667 C 244.594 101.813,243.393 102.011,242.691 102.107 C 241.990 102.203,240.476 102.448,239.327 102.652 C 238.179 102.856,236.456 103.129,235.499 103.258 C 234.542 103.387,233.456 103.594,233.086 103.718 C 232.716 103.843,232.028 103.944,231.557 103.944 C 231.086 103.944,230.188 104.100,229.561 104.290 C 228.935 104.480,227.995 104.636,227.473 104.638 C 226.951 104.639,226.011 104.796,225.385 104.986 C 224.758 105.176,223.880 105.333,223.432 105.334 C 222.985 105.335,222.254 105.446,221.808 105.579 C 221.362 105.713,220.319 105.912,219.490 106.023 C 217.435 106.297,214.961 106.709,213.623 106.999 C 213.013 107.131,211.864 107.334,211.071 107.449 C 210.278 107.564,208.689 107.817,207.541 108.012 C 206.392 108.207,204.707 108.466,203.796 108.587 C 202.886 108.709,201.861 108.915,201.519 109.045 C 201.177 109.174,200.504 109.281,200.022 109.281 C 199.540 109.281,198.633 109.436,198.007 109.626 C 197.380 109.816,196.441 109.973,195.919 109.974 C 195.396 109.976,194.457 110.132,193.830 110.322 C 193.204 110.512,192.254 110.669,191.720 110.670 C 191.186 110.672,190.456 110.787,190.096 110.925 C 189.737 111.064,188.712 111.269,187.819 111.381 C 185.937 111.616,183.627 111.995,182.135 112.314 C 181.093 112.537,179.259 112.820,176.259 113.221 C 175.388 113.337,174.344 113.534,173.939 113.658 C 172.606 114.065,170.740 114.125,170.602 113.764 C 170.477 113.439,170.995 111.161,172.517 105.336 C 172.967 103.614,174.003 99.594,174.820 96.404 C 175.636 93.213,176.891 88.306,177.609 85.499 C 180.206 75.349,182.587 66.068,184.960 56.845 C 185.732 53.846,186.443 50.974,186.540 50.464 C 186.684 49.705,187.592 46.184,188.634 42.343 C 189.120 40.552,191.032 33.156,191.303 32.019 C 191.470 31.317,191.937 29.490,192.339 27.958 C 192.742 26.427,193.153 24.809,193.253 24.362 C 193.353 23.915,193.562 23.080,193.719 22.506 C 193.875 21.932,194.160 20.835,194.352 20.070 C 194.544 19.304,194.850 18.170,195.031 17.549 C 195.212 16.928,195.360 16.272,195.360 16.091 C 195.360 15.524,196.038 14.109,196.271 14.191 C 196.393 14.234,214.832 32.578,237.247 54.956 M168.677 40.631 C 159.043 50.217,151.003 58.221,150.812 58.418 C 150.621 58.616,142.164 67.059,132.019 77.181 C 111.046 98.107,112.868 95.800,116.458 96.889 C 117.551 97.220,120.116 98.041,122.158 98.712 C 124.200 99.383,127.906 100.583,130.394 101.378 C 132.883 102.174,135.650 103.067,136.543 103.363 C 137.436 103.659,140.203 104.549,142.691 105.339 C 145.180 106.130,147.947 107.019,148.840 107.314 C 149.733 107.609,152.970 108.649,156.032 109.625 C 159.095 110.601,162.101 111.558,162.711 111.753 C 164.046 112.179,164.425 111.972,164.618 110.708 C 164.689 110.242,164.866 109.495,165.011 109.049 C 165.156 108.602,165.356 107.871,165.456 107.425 C 165.555 106.978,165.798 105.960,165.997 105.162 C 166.195 104.365,166.506 103.112,166.689 102.378 C 166.871 101.644,167.188 100.418,167.393 99.652 C 167.871 97.871,168.428 95.640,168.581 94.896 C 168.646 94.577,168.845 93.794,169.023 93.155 C 169.201 92.517,169.516 91.317,169.723 90.487 C 169.930 89.658,170.197 88.660,170.315 88.271 C 170.434 87.881,170.629 87.098,170.750 86.531 C 170.871 85.963,171.295 84.246,171.694 82.715 C 172.092 81.183,172.517 79.466,172.637 78.898 C 172.758 78.331,172.954 77.548,173.072 77.158 C 173.191 76.769,173.443 75.824,173.633 75.058 C 173.823 74.292,174.107 73.196,174.263 72.622 C 174.419 72.048,174.628 71.212,174.728 70.766 C 174.827 70.319,175.378 68.126,175.952 65.893 C 176.525 63.660,177.529 59.693,178.182 57.077 C 178.835 54.461,179.517 51.798,179.697 51.160 C 180.320 48.953,180.713 47.441,181.115 45.708 C 181.337 44.751,181.712 43.237,181.948 42.343 C 182.407 40.608,185.283 29.402,186.201 25.773 C 186.718 23.731,186.750 23.201,186.355 23.202 C 186.267 23.203,178.312 31.045,168.677 40.631 M111.949 100.374 C 112.587 100.581,113.452 100.895,113.871 101.071 C 114.290 101.248,114.826 101.392,115.063 101.392 C 115.299 101.392,115.791 101.548,116.157 101.739 C 116.522 101.929,116.992 102.086,117.201 102.087 C 117.410 102.088,117.879 102.244,118.245 102.435 C 118.610 102.625,119.094 102.782,119.319 102.783 C 119.544 102.784,119.909 102.879,120.131 102.996 C 120.352 103.112,122.100 103.696,124.014 104.293 C 125.928 104.890,127.860 105.516,128.306 105.684 C 128.753 105.853,130.684 106.484,132.599 107.087 C 134.513 107.690,137.802 108.743,139.907 109.428 C 144.596 110.953,145.989 111.400,151.740 113.225 C 154.229 114.014,157.987 115.218,160.093 115.900 C 162.198 116.582,164.363 117.267,164.903 117.423 C 166.290 117.821,166.321 117.873,168.632 123.666 C 169.778 126.537,173.296 135.307,176.450 143.155 C 189.808 176.393,191.919 181.709,191.801 181.826 C 191.646 181.981,110.209 100.539,110.209 100.228 C 110.209 99.907,110.615 99.941,111.949 100.374 M275.870 101.520 C 275.870 101.800,196.050 181.226,195.604 181.390 C 195.504 181.426,194.846 180.017,194.142 178.257 C 190.957 170.288,186.508 159.238,186.316 158.817 C 186.199 158.561,185.776 157.517,185.375 156.497 C 184.974 155.476,184.553 154.432,184.439 154.176 C 184.212 153.667,182.276 148.858,180.471 144.316 C 179.837 142.720,179.224 141.206,179.110 140.951 C 178.996 140.696,178.528 139.548,178.071 138.399 C 177.613 137.251,177.144 136.102,177.028 135.847 C 176.911 135.592,176.024 133.399,175.055 130.974 C 174.087 128.550,173.157 126.253,172.988 125.870 C 172.819 125.487,172.493 124.652,172.263 124.014 C 172.034 123.376,171.774 122.749,171.687 122.622 C 171.317 122.083,170.445 119.269,170.600 119.114 C 170.692 119.021,171.577 118.814,172.565 118.652 C 173.553 118.491,180.626 117.300,188.283 116.005 C 195.940 114.710,203.092 113.506,204.176 113.329 C 205.261 113.153,207.976 112.697,210.209 112.316 C 212.442 111.936,215.574 111.409,217.169 111.145 C 218.765 110.882,220.957 110.515,222.042 110.329 C 223.126 110.144,225.006 109.826,226.218 109.622 C 228.878 109.176,231.949 108.638,233.527 108.342 C 234.165 108.222,235.365 108.023,236.195 107.899 C 237.024 107.775,238.695 107.504,239.907 107.297 C 241.119 107.090,242.425 106.871,242.807 106.810 C 243.190 106.750,244.339 106.556,245.360 106.380 C 247.487 106.012,250.554 105.495,253.654 104.980 C 254.835 104.784,256.375 104.510,257.077 104.370 C 257.778 104.231,258.979 104.031,259.745 103.926 C 260.510 103.820,262.077 103.567,263.225 103.363 C 264.374 103.159,266.201 102.846,267.285 102.668 C 272.256 101.852,273.652 101.599,273.752 101.499 C 273.904 101.347,275.870 101.366,275.870 101.520 M121.048 106.872 C 120.910 107.010,181.719 167.762,182.641 168.408 C 183.407 168.945,183.368 168.565,182.414 166.202 C 181.908 164.947,180.478 161.415,179.237 158.353 C 177.997 155.290,176.220 150.905,175.290 148.608 C 174.360 146.311,173.004 142.970,172.277 141.183 C 170.865 137.714,165.536 124.550,164.527 122.042 L 163.921 120.534 157.193 118.304 C 153.492 117.077,148.428 115.422,145.940 114.626 C 143.451 113.830,141.206 113.099,140.951 113.002 C 140.696 112.904,138.921 112.330,137.007 111.725 C 135.093 111.120,133.161 110.493,132.715 110.332 C 132.268 110.170,131.276 109.856,130.510 109.634 C 129.745 109.412,128.753 109.094,128.306 108.928 C 127.860 108.762,126.398 108.296,125.058 107.891 C 123.718 107.487,122.441 107.060,122.219 106.942 C 121.754 106.696,121.254 106.665,121.048 106.872 M65.893 202.364 C 67.194 202.762,67.285 202.921,67.285 204.780 C 67.285 206.864,67.110 206.957,63.996 206.516 C 58.372 205.720,55.318 209.578,56.481 216.009 C 57.326 220.679,61.523 222.750,66.153 220.783 C 66.860 220.483,67.285 221.257,67.285 222.845 C 67.285 224.956,66.952 225.288,64.600 225.526 C 56.355 226.357,51.762 223.121,51.067 215.994 C 50.380 208.945,53.435 203.311,58.410 202.453 C 58.889 202.370,59.803 202.212,60.441 202.101 C 61.796 201.866,64.727 202.007,65.893 202.364 M80.774 202.227 C 83.539 203.051,85.660 204.620,86.647 206.572 C 86.852 206.977,87.112 207.465,87.224 207.657 C 89.306 211.201,88.243 219.938,85.348 223.086 C 84.531 223.974,84.106 224.244,82.019 225.202 C 80.773 225.773,75.306 225.811,74.446 225.254 C 74.144 225.059,73.594 224.824,73.222 224.733 C 72.384 224.526,70.106 222.226,69.513 220.989 C 69.271 220.483,68.997 219.908,68.903 219.711 C 68.390 218.631,67.943 215.202,68.051 213.178 C 68.271 209.040,69.070 206.845,71.114 204.753 C 73.494 202.318,77.533 201.261,80.774 202.227 M128.422 202.351 C 132.789 203.287,134.627 205.543,134.764 210.133 C 134.844 212.787,134.752 213.224,133.698 215.185 C 132.609 217.211,129.007 218.794,125.481 218.794 L 123.434 218.794 123.434 221.918 C 123.434 225.588,123.481 225.522,120.882 225.522 C 118.064 225.522,118.329 226.715,118.329 214.057 C 118.329 205.544,118.395 203.023,118.619 202.850 C 118.913 202.624,121.387 202.150,123.086 201.995 C 124.379 201.877,127.040 202.054,128.422 202.351 M205.518 202.345 C 205.818 202.459,206.275 202.552,206.535 202.552 C 209.788 202.552,212.759 207.478,211.730 211.165 C 211.135 213.295,209.705 215.545,208.946 215.545 C 208.851 215.545,208.538 215.731,208.249 215.958 L 207.724 216.371 209.336 218.801 C 210.222 220.137,211.340 221.752,211.819 222.391 C 213.944 225.224,213.842 225.522,210.742 225.522 C 208.128 225.522,208.441 225.777,205.435 221.186 C 203.018 217.493,202.529 216.951,201.613 216.943 C 200.547 216.933,200.464 217.238,200.464 221.144 C 200.464 225.562,200.485 225.523,198.069 225.519 C 197.153 225.517,196.169 225.453,195.882 225.376 L 195.360 225.236 195.360 214.140 C 195.360 205.691,195.427 203.002,195.641 202.870 C 195.966 202.669,197.378 202.390,199.536 202.102 C 201.197 201.879,204.664 202.020,205.518 202.345 M234.538 202.383 C 235.825 202.787,236.000 203.124,235.916 205.045 L 235.847 206.613 234.455 206.575 C 233.689 206.554,232.436 206.467,231.671 206.382 C 228.225 206.001,225.971 207.620,226.830 209.859 C 226.970 210.225,229.144 211.369,229.698 211.369 C 230.113 211.369,232.344 212.112,232.587 212.331 C 232.708 212.440,232.981 212.529,233.192 212.529 C 233.640 212.529,235.675 214.413,236.325 215.429 C 236.868 216.278,236.990 220.643,236.485 221.148 C 236.325 221.308,236.195 221.608,236.195 221.815 C 236.195 224.561,227.825 226.746,223.318 225.176 C 221.895 224.680,221.817 224.565,221.816 222.970 C 221.816 220.414,221.801 220.423,225.057 221.116 C 227.628 221.663,230.341 221.355,231.116 220.426 C 232.538 218.723,231.778 217.320,228.985 216.489 C 227.030 215.907,226.768 215.810,225.208 215.084 C 219.522 212.439,220.360 203.975,226.450 202.537 C 226.897 202.431,227.628 202.239,228.074 202.109 C 229.130 201.802,233.240 201.976,234.538 202.383 M253.701 202.416 L 254.640 202.687 254.708 204.596 C 254.790 206.922,254.799 206.916,251.819 206.539 C 248.733 206.150,246.802 206.702,245.357 208.388 C 243.233 210.865,243.399 217.582,245.639 219.822 C 247.055 221.237,251.137 221.816,253.306 220.909 C 254.511 220.405,254.789 220.806,254.707 222.924 C 254.609 225.487,254.407 225.599,249.954 225.577 C 242.060 225.537,238.510 221.929,238.518 213.952 C 238.523 208.704,240.232 205.230,243.735 203.341 C 246.253 201.985,250.760 201.566,253.701 202.416 M319.838 202.421 L 320.766 202.689 320.766 204.651 L 320.766 206.613 320.070 206.692 C 319.687 206.736,318.612 206.649,317.680 206.500 C 314.266 205.950,311.648 207.262,310.582 210.056 C 310.093 211.340,309.975 216.796,310.427 217.249 C 310.562 217.384,310.673 217.658,310.673 217.858 C 310.673 220.348,316.184 222.267,319.432 220.909 C 320.594 220.423,320.882 220.806,320.882 222.838 C 320.882 225.105,320.704 225.300,318.429 225.529 C 314.999 225.874,311.102 225.368,309.959 224.430 C 309.757 224.265,309.494 224.130,309.374 224.130 C 308.773 224.130,306.722 221.938,306.066 220.594 C 304.372 217.124,304.147 211.684,305.565 208.469 C 305.677 208.213,305.933 207.639,306.132 207.193 C 307.115 204.997,310.006 202.880,312.761 202.338 C 315.305 201.838,317.927 201.868,319.838 202.421 M97.665 203.596 C 97.975 204.234,98.356 205.070,98.510 205.452 C 98.799 206.167,98.925 206.471,99.768 208.469 C 100.037 209.107,100.367 209.890,100.501 210.209 C 100.635 210.528,100.880 211.102,101.045 211.485 C 101.211 211.868,101.696 213.041,102.123 214.092 C 103.114 216.529,102.940 216.582,104.181 213.457 C 104.460 212.755,104.775 211.972,104.881 211.717 C 105.410 210.441,105.774 209.534,106.138 208.585 C 106.359 208.010,106.673 207.227,106.837 206.845 C 107.000 206.462,107.315 205.679,107.536 205.104 C 108.065 203.731,108.606 202.709,108.915 202.498 C 109.347 202.203,114.262 202.290,114.571 202.599 C 114.972 203.000,114.972 224.843,114.571 225.244 C 114.234 225.580,111.417 225.617,110.572 225.296 L 109.977 225.069 109.977 218.001 C 109.977 213.539,109.891 210.879,109.745 210.789 C 109.617 210.710,109.513 210.805,109.513 210.999 C 109.513 211.194,109.345 211.748,109.139 212.231 C 108.933 212.714,108.632 213.422,108.470 213.805 C 108.307 214.188,107.838 215.336,107.426 216.357 C 106.523 218.598,106.421 218.842,105.813 220.231 C 105.551 220.830,105.336 221.433,105.336 221.571 C 105.336 222.151,103.134 222.471,101.456 222.136 C 100.756 221.996,100.702 221.912,99.605 219.258 C 99.421 218.811,99.110 218.080,98.916 217.633 C 98.721 217.187,98.405 216.456,98.214 216.009 C 98.022 215.563,97.729 214.884,97.563 214.501 C 97.396 214.118,97.067 213.310,96.832 212.704 C 96.135 210.911,96.079 211.291,96.008 218.310 C 95.970 222.001,95.856 225.104,95.753 225.206 C 95.509 225.450,92.517 225.616,91.767 225.428 L 91.183 225.281 91.183 213.955 C 91.183 207.726,91.256 202.557,91.345 202.468 C 91.434 202.379,92.765 202.336,94.303 202.371 L 97.100 202.436 97.665 203.596 M142.181 202.599 C 142.384 202.802,142.462 204.670,142.470 209.501 C 142.486 220.352,142.778 221.188,146.540 221.197 C 150.197 221.206,150.446 220.543,150.531 210.565 C 150.581 204.709,150.670 202.639,150.879 202.506 C 151.532 202.091,155.191 202.295,155.440 202.760 C 155.872 203.569,155.603 219.225,155.141 220.116 C 154.930 220.524,154.756 221.021,154.756 221.220 C 154.756 222.115,152.089 224.826,151.209 224.826 C 151.042 224.826,150.801 224.930,150.674 225.057 C 150.191 225.540,146.674 225.820,144.533 225.545 C 140.742 225.059,138.732 223.434,137.760 220.070 C 137.354 218.665,137.245 202.765,137.639 202.515 C 138.115 202.213,141.864 202.282,142.181 202.599 M261.500 202.560 C 262.238 202.955,262.197 224.909,261.458 225.305 C 260.727 225.696,257.121 225.503,256.840 225.058 C 256.384 224.337,256.555 202.841,257.019 202.571 C 257.552 202.260,260.925 202.252,261.500 202.560 M280.378 202.685 C 280.628 202.935,280.742 203.485,280.742 204.440 C 280.742 206.830,280.968 206.729,275.649 206.729 C 269.864 206.729,270.302 206.539,270.302 209.049 C 270.302 211.534,269.990 211.369,274.683 211.369 C 279.002 211.369,278.886 211.305,278.886 213.689 C 278.886 216.073,279.002 216.009,274.683 216.009 C 269.993 216.009,270.302 215.847,270.302 218.310 C 270.302 221.263,269.985 221.098,275.754 221.169 L 280.626 221.230 280.695 223.081 C 280.752 224.623,280.696 224.982,280.361 225.227 C 279.845 225.605,266.343 225.655,265.646 225.282 C 265.092 224.985,264.928 203.146,265.476 202.599 C 265.946 202.128,279.902 202.209,280.378 202.685 M288.051 202.453 C 288.455 202.563,289.851 204.681,291.769 208.097 C 292.027 208.557,292.638 209.551,293.125 210.307 C 293.613 211.062,294.073 211.845,294.147 212.047 C 294.221 212.248,294.348 212.465,294.430 212.529 C 294.511 212.593,295.145 213.585,295.839 214.733 L 297.100 216.821 297.216 209.629 L 297.332 202.436 299.385 202.369 C 302.364 202.271,302.088 201.091,302.088 213.955 L 302.088 225.069 301.493 225.296 C 300.849 225.540,298.087 225.599,297.332 225.383 C 296.866 225.251,295.128 222.832,295.128 222.317 C 295.128 222.165,295.030 222.042,294.911 222.042 C 294.792 222.042,294.622 221.807,294.532 221.520 C 294.442 221.233,294.300 220.945,294.217 220.882 C 293.951 220.680,291.183 216.056,291.183 215.815 C 291.183 215.688,291.099 215.549,290.996 215.507 C 290.893 215.464,290.240 214.490,289.546 213.341 L 288.283 211.253 288.167 218.136 C 288.103 221.922,287.967 225.104,287.865 225.206 C 287.621 225.450,284.628 225.616,283.878 225.428 L 283.295 225.281 283.295 213.955 C 283.295 207.726,283.364 202.560,283.449 202.475 C 283.634 202.290,287.388 202.272,288.051 202.453 M338.005 202.599 C 338.315 202.909,338.387 205.973,338.095 206.434 C 337.963 206.641,336.586 206.736,333.052 206.782 L 328.190 206.845 328.190 209.049 L 328.190 211.253 332.367 211.369 L 336.543 211.485 336.610 213.631 C 336.646 214.811,336.646 215.797,336.610 215.822 C 336.573 215.846,334.664 215.924,332.367 215.996 L 328.190 216.125 328.122 218.097 C 328.007 221.404,327.524 221.114,333.137 221.114 C 336.577 221.114,338.038 221.193,338.237 221.392 C 338.665 221.821,338.599 224.709,338.150 225.157 C 337.601 225.706,323.883 225.706,323.334 225.157 C 322.856 224.679,322.773 203.074,323.248 202.599 C 323.453 202.394,325.414 202.320,330.626 202.320 C 335.839 202.320,337.800 202.394,338.005 202.599 M175.620 202.879 C 175.788 203.081,175.865 203.853,175.823 204.909 L 175.754 206.613 172.390 206.751 C 170.539 206.828,168.999 206.906,168.968 206.925 C 168.936 206.945,168.910 211.074,168.910 216.100 C 168.910 224.221,168.869 225.256,168.543 225.381 C 167.570 225.754,164.290 225.530,164.045 225.073 C 163.892 224.786,163.805 221.403,163.805 215.683 L 163.805 206.741 160.499 206.677 L 157.193 206.613 157.122 205.112 C 157.083 204.286,157.112 203.372,157.185 203.081 L 157.317 202.552 166.333 202.552 C 173.801 202.552,175.396 202.608,175.620 202.879 M192.759 204.430 C 192.849 206.806,193.072 206.707,187.453 206.782 L 182.715 206.845 182.715 209.049 L 182.715 211.253 186.659 211.369 C 191.383 211.508,191.184 211.413,191.180 213.529 C 191.175 215.986,191.374 215.875,186.726 216.009 L 182.715 216.125 182.646 218.097 C 182.532 221.392,182.035 221.094,187.764 221.167 L 192.691 221.230 192.758 223.108 C 192.809 224.523,192.743 225.055,192.491 225.264 C 191.945 225.717,177.782 225.522,177.489 225.058 C 177.132 224.492,177.193 202.851,177.552 202.704 C 177.712 202.639,181.183 202.604,185.267 202.627 L 192.691 202.668 192.759 204.430 M200.754 206.175 C 200.316 206.368,200.343 212.433,200.782 212.602 C 204.600 214.066,208.017 211.402,206.617 208.052 C 205.964 206.489,202.530 205.389,200.754 206.175 M77.133 206.628 C 76.488 206.773,75.695 207.065,75.370 207.278 C 74.826 207.634,74.628 207.947,73.765 209.806 C 72.410 212.729,73.873 219.802,76.059 220.893 C 80.882 223.302,83.978 218.430,82.629 210.557 C 82.107 207.506,79.987 205.990,77.133 206.628 M123.487 210.383 L 123.550 214.501 125.357 214.569 C 128.328 214.681,129.930 213.237,129.930 210.448 C 129.930 208.787,128.760 206.729,127.815 206.729 C 127.590 206.729,127.341 206.624,127.262 206.497 C 127.183 206.369,126.287 206.265,125.271 206.265 L 123.423 206.265 123.487 210.383 " stroke="none" fill="#fbfbfb" fill-rule="evenodd"></path></g></svg>