<svg id="svg" version="1.1" xmlns="http://www.w3.org/2000/svg" xmlns:xlink="http://www.w3.org/1999/xlink" width="400" height="266.875" viewBox="0, 0, 400,266.875"><g id="svgg"><path id="path0" d="M19.760 133.511 L 19.760 247.263 200.000 247.263 L 380.240 247.263 380.240 133.511 L 380.240 19.760 200.000 19.760 L 19.760 19.760 19.760 133.511 M64.352 69.034 C 64.352 104.622,64.420 113.527,64.690 113.631 C 64.876 113.702,74.819 113.788,86.786 113.823 L 108.545 113.885 108.545 133.511 L 108.545 153.138 66.555 153.204 L 24.566 153.271 24.566 88.919 L 24.566 24.566 44.459 24.566 L 64.352 24.566 64.352 69.034 M108.678 46.737 C 108.678 65.320,108.738 68.931,109.046 69.050 C 109.248 69.127,119.191 69.214,131.142 69.242 L 152.870 69.292 152.938 111.283 L 153.006 153.274 133.312 153.206 L 113.618 153.138 113.485 131.197 C 113.411 119.130,113.274 109.180,113.181 109.086 C 113.087 108.993,103.282 108.926,91.391 108.937 C 79.500 108.949,69.573 108.883,69.332 108.790 C 68.926 108.634,68.892 105.371,68.892 66.594 L 68.892 24.566 88.785 24.566 L 108.678 24.566 108.678 46.737 M286.450 44.393 L 286.382 64.219 199.866 64.219 L 113.351 64.219 113.278 44.993 C 113.237 34.419,113.269 25.497,113.349 25.167 L 113.495 24.566 200.007 24.566 L 286.519 24.566 286.450 44.393 M375.536 24.981 C 376.036 26.283,375.692 108.397,375.186 108.668 C 374.844 108.851,360.991 108.920,333.066 108.876 L 291.455 108.812 291.388 66.689 L 291.320 24.566 333.348 24.566 C 371.092 24.566,375.393 24.608,375.536 24.981 M286.353 69.314 C 286.788 70.448,286.523 108.618,286.079 108.788 C 285.839 108.881,275.906 108.948,264.006 108.939 C 246.584 108.925,242.326 108.989,242.150 109.267 C 242.029 109.457,241.929 119.437,241.927 131.444 L 241.923 153.274 222.230 153.206 L 202.537 153.138 202.468 131.253 C 202.431 119.217,202.301 109.270,202.179 109.149 C 202.058 109.027,192.220 108.933,180.317 108.941 C 168.415 108.948,158.481 108.879,158.243 108.787 C 157.802 108.618,157.540 70.440,157.972 69.314 C 158.221 68.666,286.104 68.666,286.353 69.314 M197.570 113.852 C 197.793 114.122,197.870 120.007,197.858 135.888 C 197.848 147.806,197.913 157.674,198.001 157.817 C 198.104 157.983,206.111 158.077,220.042 158.077 L 241.923 158.077 241.923 177.971 L 241.923 197.865 177.637 197.798 L 113.351 197.730 113.351 177.971 L 113.351 158.211 135.222 158.143 C 150.840 158.094,157.195 157.989,157.451 157.776 C 157.747 157.531,157.810 153.613,157.810 135.659 C 157.810 123.659,157.891 113.761,157.988 113.663 C 158.377 113.274,197.244 113.460,197.570 113.852 M375.434 155.809 L 375.434 197.867 355.607 197.799 L 335.781 197.730 335.713 175.799 C 335.657 157.832,335.580 153.814,335.286 153.570 C 335.026 153.355,322.787 153.254,290.895 153.205 L 246.862 153.138 246.793 133.778 C 246.755 123.131,246.782 114.269,246.852 114.085 C 246.953 113.820,260.071 113.752,311.207 113.752 L 375.434 113.752 375.434 155.809 M108.612 200.334 L 108.545 242.590 66.679 242.590 C 29.755 242.590,24.784 242.543,24.562 242.190 C 24.277 241.736,24.195 158.538,24.480 158.253 C 24.576 158.156,43.561 158.077,66.667 158.077 L 108.680 158.077 108.612 200.334 M330.486 158.246 L 331.127 158.407 331.097 180.305 C 331.081 192.408,331.172 202.306,331.300 202.435 C 331.428 202.563,341.440 202.698,353.550 202.735 L 375.567 202.804 375.644 221.762 C 375.685 232.190,375.650 241.111,375.565 241.589 L 375.410 242.457 333.366 242.457 L 291.322 242.457 291.322 220.443 C 291.322 206.446,291.227 198.371,291.062 198.269 C 290.919 198.180,280.959 198.115,268.929 198.125 C 249.109 198.140,247.042 198.101,246.893 197.714 C 246.544 196.805,246.709 158.397,247.063 158.256 C 247.545 158.064,329.722 158.054,330.486 158.246 M286.450 222.547 C 286.505 238.166,286.449 242.333,286.183 242.499 C 285.664 242.823,114.329 242.765,113.722 242.441 C 113.208 242.166,112.889 203.355,113.396 202.848 C 113.494 202.750,152.456 202.700,199.978 202.737 L 286.382 202.804 286.450 222.547 " stroke="none" fill="#070605" fill-rule="evenodd"></path><path id="path1" d="M24.566 88.919 L 24.566 153.271 66.555 153.204 L 108.545 153.138 108.545 133.511 L 108.545 113.885 86.786 113.823 C 74.819 113.788,64.876 113.702,64.690 113.631 C 64.420 113.527,64.352 104.622,64.352 69.034 L 64.352 24.566 44.459 24.566 L 24.566 24.566 24.566 88.919 M332.390 24.887 C 332.729 25.226,332.883 64.926,332.548 65.799 C 332.402 66.179,330.343 66.222,312.004 66.222 L 291.621 66.222 291.516 65.220 C 291.459 64.670,291.412 65.360,291.412 66.756 C 291.412 68.151,291.459 68.842,291.516 68.291 L 291.621 67.290 311.866 67.290 C 328.610 67.290,332.163 67.353,332.412 67.653 C 332.632 67.917,332.695 73.532,332.645 88.280 L 332.577 108.545 311.975 108.545 C 300.644 108.545,291.428 108.634,291.495 108.742 C 291.562 108.851,310.385 108.911,333.325 108.877 C 365.972 108.827,370.567 108.785,354.473 108.679 L 333.912 108.545 333.843 88.251 C 333.778 69.409,333.806 67.933,334.227 67.623 C 334.890 67.137,374.322 67.137,374.986 67.623 C 375.409 67.934,375.436 69.389,375.371 88.292 C 375.332 99.477,375.389 108.572,375.498 108.505 C 375.731 108.361,375.769 25.587,375.536 24.981 C 375.448 24.753,375.179 24.570,374.938 24.574 C 374.549 24.581,374.552 24.613,374.967 24.854 C 375.562 25.201,375.706 65.309,375.113 65.901 C 374.479 66.536,334.397 66.344,334.055 65.705 C 333.528 64.721,333.687 25.644,334.220 25.054 C 334.643 24.588,334.605 24.566,333.366 24.566 C 332.358 24.566,332.141 24.637,332.390 24.887 M246.852 114.085 C 246.782 114.269,246.755 123.131,246.793 133.778 L 246.862 153.138 290.895 153.205 C 322.787 153.254,335.026 153.355,335.286 153.570 C 335.580 153.814,335.657 157.832,335.713 175.799 L 335.781 197.730 355.607 197.799 L 375.434 197.867 375.434 155.809 L 375.434 113.752 311.207 113.752 C 260.071 113.752,246.953 113.820,246.852 114.085 M35.200 158.278 C 40.975 158.318,50.348 158.318,56.028 158.278 C 61.708 158.237,56.983 158.205,45.527 158.205 C 34.072 158.205,29.425 158.237,35.200 158.278 M77.503 158.278 C 83.194 158.318,92.507 158.318,98.198 158.278 C 103.889 158.237,99.232 158.204,87.850 158.204 C 76.469 158.204,71.812 158.237,77.503 158.278 " stroke="none" fill="#f88e11" fill-rule="evenodd"></path><path id="path2" d="M158.344 89.052 L 158.344 108.682 178.838 108.613 L 199.332 108.545 199.332 89.052 L 199.332 69.559 178.838 69.491 L 158.344 69.423 158.344 89.052 M200.657 69.758 C 200.587 69.943,200.560 78.745,200.598 89.319 L 200.668 108.545 201.602 108.678 C 202.428 108.796,202.546 108.913,202.620 109.680 L 202.704 110.547 222.163 110.547 L 241.622 110.547 241.705 109.680 C 241.779 108.913,241.898 108.796,242.724 108.678 L 243.658 108.545 243.658 89.052 L 243.658 69.559 222.222 69.491 C 205.214 69.437,200.759 69.492,200.657 69.758 M245.305 69.604 C 245.207 69.702,245.127 78.534,245.127 89.230 L 245.127 108.678 265.554 108.678 L 285.981 108.678 285.981 89.052 L 285.981 69.426 265.732 69.426 C 254.595 69.426,245.403 69.506,245.305 69.604 M202.670 132.443 L 202.670 153.004 222.163 153.004 L 241.656 153.004 241.656 132.443 L 241.656 111.883 222.163 111.883 L 202.670 111.883 202.670 132.443 M158.344 134.581 L 158.344 155.144 177.770 155.075 L 197.196 155.007 197.265 134.513 L 197.333 114.019 177.839 114.019 L 158.344 114.019 158.344 134.581 M158.295 157.343 C 158.221 158.110,158.102 158.226,157.276 158.344 L 156.342 158.478 156.273 177.904 L 156.205 197.330 177.702 197.330 L 199.199 197.330 199.199 177.854 L 199.199 158.378 198.331 158.295 C 197.568 158.221,197.453 158.106,197.380 157.343 L 197.296 156.475 177.837 156.475 L 158.378 156.475 158.295 157.343 M114.019 177.835 L 114.019 197.330 134.448 197.330 L 154.877 197.330 154.808 177.904 L 154.740 158.478 134.379 158.410 L 114.019 158.341 114.019 177.835 M200.801 177.837 L 200.801 197.330 221.228 197.330 L 241.656 197.330 241.656 177.837 L 241.656 158.344 221.228 158.344 L 200.801 158.344 200.801 177.837 " stroke="none" fill="#f441f3" fill-rule="evenodd"></path><path id="path3" d="M113.616 25.167 C 113.536 25.497,113.504 34.419,113.545 44.993 L 113.618 64.219 199.933 64.283 L 286.248 64.348 286.248 44.457 L 286.248 24.566 200.005 24.566 L 113.762 24.566 113.616 25.167 M113.926 202.852 C 113.830 202.948,113.752 211.898,113.752 222.741 L 113.752 242.457 134.188 242.457 C 152.117 242.457,154.702 242.406,155.251 242.046 C 155.814 241.678,155.893 241.678,156.034 242.046 C 156.225 242.544,199.466 242.686,199.466 242.190 C 199.466 242.043,199.706 241.923,200.000 241.923 C 200.294 241.923,200.534 242.043,200.534 242.190 C 200.534 242.686,243.775 242.544,243.966 242.046 C 244.107 241.678,244.187 241.678,244.752 242.048 C 245.306 242.412,247.769 242.452,265.747 242.392 L 286.115 242.323 286.115 222.563 L 286.115 202.804 200.108 202.740 C 152.804 202.705,114.023 202.755,113.926 202.852 " stroke="none" fill="#44f1f0" fill-rule="evenodd"></path><path id="path4" d="" stroke="none" fill="#c3c3fb" fill-rule="evenodd"></path><path id="path5" d="M291.490 25.167 C 291.275 25.968,291.280 63.029,291.495 64.820 L 291.663 66.222 312.025 66.222 C 330.345 66.222,332.402 66.179,332.548 65.799 C 332.883 64.926,332.729 25.226,332.390 24.887 C 332.146 24.643,327.222 24.566,311.860 24.566 L 291.651 24.566 291.490 25.167 M334.220 25.054 C 333.687 25.644,333.528 64.721,334.055 65.705 C 334.397 66.344,374.479 66.536,375.113 65.901 C 375.748 65.267,375.557 25.185,374.917 24.843 C 373.859 24.276,334.740 24.480,334.220 25.054 M291.465 69.226 C 291.371 70.290,291.331 79.573,291.375 89.853 L 291.455 108.545 312.016 108.545 L 332.577 108.545 332.645 88.280 C 332.695 73.532,332.632 67.917,332.412 67.653 C 332.163 67.353,328.611 67.290,311.873 67.290 L 291.634 67.290 291.465 69.226 M334.227 67.623 C 333.806 67.933,333.778 69.409,333.843 88.251 L 333.912 108.545 354.606 108.545 L 375.300 108.545 375.370 88.251 C 375.434 69.409,375.406 67.933,374.985 67.623 C 374.323 67.137,334.890 67.137,334.227 67.623 M24.566 178.894 C 24.566 198.941,24.579 199.454,25.083 199.724 C 25.771 200.092,64.838 200.107,65.805 199.739 L 66.492 199.478 66.424 178.978 L 66.355 158.478 45.461 158.410 L 24.566 158.341 24.566 178.894 M67.202 158.521 C 66.684 159.039,67.014 199.443,67.539 199.724 C 67.882 199.907,74.831 200.000,88.221 200.000 L 108.387 200.000 108.542 199.132 C 108.627 198.655,108.663 189.312,108.621 178.371 L 108.545 158.478 87.963 158.410 C 76.644 158.372,67.301 158.422,67.202 158.521 M24.864 200.897 C 24.645 201.162,24.581 206.846,24.631 221.792 L 24.700 242.323 45.173 242.392 C 63.522 242.453,65.690 242.416,66.067 242.039 C 66.622 241.484,66.720 201.406,66.168 200.854 C 65.667 200.353,25.281 200.395,24.864 200.897 M67.343 200.854 C 66.879 201.318,66.879 241.672,67.343 242.136 C 67.897 242.690,108.303 242.590,108.516 242.034 C 108.727 241.484,108.721 201.923,108.510 201.135 L 108.349 200.534 88.006 200.534 C 72.540 200.534,67.587 200.611,67.343 200.854 " stroke="none" fill="#fbfb69" fill-rule="evenodd"></path><path id="path6" d="M68.892 66.594 C 68.892 105.371,68.926 108.634,69.332 108.790 C 69.573 108.883,79.500 108.949,91.391 108.937 C 103.282 108.926,113.087 108.993,113.181 109.086 C 113.274 109.180,113.411 119.130,113.485 131.197 L 113.618 153.138 133.312 153.206 L 153.006 153.274 152.938 111.283 L 152.870 69.292 131.142 69.242 C 119.191 69.214,109.248 69.127,109.046 69.050 C 108.738 68.931,108.678 65.320,108.678 46.737 L 108.678 24.566 88.785 24.566 L 68.892 24.566 68.892 66.594 M113.380 24.988 C 113.143 25.605,113.181 64.031,113.418 64.178 C 113.528 64.246,113.618 55.361,113.618 44.434 C 113.618 33.507,113.601 24.566,113.580 24.566 C 113.559 24.566,113.469 24.756,113.380 24.988 M286.375 44.326 C 286.375 55.267,286.408 59.743,286.448 54.272 C 286.489 48.802,286.489 39.850,286.448 34.379 C 286.408 28.909,286.375 33.385,286.375 44.326 M24.422 158.411 C 24.352 158.595,24.326 167.937,24.364 179.172 L 24.433 199.599 24.566 178.838 C 24.640 167.420,24.666 158.077,24.624 158.077 C 24.583 158.077,24.492 158.228,24.422 158.411 M257.343 158.278 C 262.961 158.318,272.153 158.318,277.770 158.278 C 283.388 158.237,278.792 158.204,267.557 158.204 C 256.322 158.204,251.726 158.237,257.343 158.278 M299.913 158.278 C 305.447 158.318,314.579 158.318,320.207 158.278 C 325.836 158.237,321.308 158.204,310.147 158.204 C 298.985 158.204,294.380 158.237,299.913 158.278 M246.794 177.749 C 246.758 188.494,246.803 197.479,246.893 197.714 C 247.042 198.101,249.109 198.140,268.929 198.125 C 280.959 198.115,290.919 198.180,291.062 198.269 C 291.205 198.357,291.322 198.298,291.322 198.138 C 291.322 197.834,291.136 197.747,289.916 197.480 L 289.179 197.318 289.249 177.831 C 289.319 158.499,289.315 158.344,288.785 158.344 C 288.256 158.344,288.251 158.522,288.251 177.904 L 288.251 197.463 267.625 197.532 L 246.999 197.600 246.929 177.906 L 246.859 158.211 246.794 177.749 M330.509 178.972 L 330.441 199.599 311.098 199.668 C 295.801 199.722,291.711 199.666,291.543 199.401 C 291.419 199.205,291.330 199.567,291.330 200.267 C 291.330 200.967,291.419 201.329,291.543 201.133 C 291.711 200.868,295.801 200.812,311.098 200.866 L 330.441 200.935 330.526 201.602 C 330.629 202.405,331.254 202.937,332.094 202.937 L 332.710 202.937 332.710 222.377 C 332.710 237.140,332.633 241.893,332.390 242.136 C 332.141 242.385,332.331 242.457,333.244 242.457 C 334.158 242.457,334.348 242.385,334.099 242.136 C 333.855 241.893,333.778 237.140,333.778 222.377 L 333.778 202.937 354.604 202.937 L 375.430 202.937 375.502 222.230 L 375.573 241.522 375.570 222.163 L 375.567 202.804 353.550 202.735 C 341.440 202.698,331.428 202.563,331.300 202.435 C 331.172 202.306,331.081 192.395,331.097 180.274 C 331.117 165.406,331.038 158.344,330.852 158.344 C 330.667 158.344,330.555 165.060,330.509 178.972 M24.426 221.362 C 24.426 232.744,24.459 237.400,24.499 231.709 C 24.539 226.018,24.539 216.706,24.499 211.015 C 24.459 205.324,24.426 209.980,24.426 221.362 M113.344 222.563 C 113.344 233.431,113.377 237.838,113.418 232.357 C 113.458 226.875,113.458 217.983,113.418 212.597 C 113.377 207.211,113.344 211.696,113.344 222.563 M35.314 242.657 C 40.858 242.697,49.930 242.697,55.474 242.657 C 61.018 242.616,56.482 242.584,45.394 242.584 C 34.306 242.584,29.770 242.616,35.314 242.657 M77.904 242.657 C 83.521 242.697,92.714 242.697,98.331 242.657 C 103.949 242.617,99.352 242.584,88.117 242.584 C 76.883 242.584,72.286 242.617,77.904 242.657 M123.965 242.657 C 129.509 242.697,138.581 242.697,144.126 242.657 C 149.670 242.616,145.134 242.584,134.045 242.584 C 122.957 242.584,118.421 242.616,123.965 242.657 M166.956 242.657 C 172.794 242.697,182.346 242.697,188.184 242.657 C 194.022 242.617,189.246 242.584,177.570 242.584 C 165.895 242.584,161.118 242.617,166.956 242.657 M211.816 242.657 C 217.654 242.697,227.206 242.697,233.044 242.657 C 238.882 242.617,234.105 242.584,222.430 242.584 C 210.754 242.584,205.978 242.617,211.816 242.657 M255.874 242.657 C 261.419 242.697,270.491 242.697,276.035 242.657 C 281.579 242.616,277.043 242.584,265.955 242.584 C 254.866 242.584,250.330 242.616,255.874 242.657 " stroke="none" fill="#41f441" fill-rule="evenodd"></path><path id="path7" d="M66.425 178.911 L 66.495 199.477 65.807 199.738 C 64.838 200.107,25.772 200.093,25.083 199.724 C 24.621 199.477,24.566 199.540,24.566 200.311 C 24.566 200.983,24.637 201.104,24.887 200.854 C 25.350 200.391,65.704 200.391,66.168 200.854 C 66.718 201.405,66.622 241.484,66.069 242.037 C 65.688 242.418,65.741 242.457,66.656 242.457 C 67.440 242.457,67.592 242.385,67.343 242.136 C 66.879 241.672,66.879 201.318,67.343 200.854 C 67.936 200.261,108.338 200.406,108.494 201.001 C 108.561 201.258,108.616 200.928,108.616 200.267 C 108.616 199.606,108.561 199.276,108.494 199.533 C 108.335 200.140,68.295 200.270,67.471 199.666 C 67.047 199.356,67.020 197.891,67.086 178.838 C 67.148 160.768,67.109 158.344,66.756 158.344 C 66.403 158.344,66.363 160.776,66.425 178.911 M246.996 177.971 L 246.996 197.600 267.623 197.532 L 288.251 197.463 288.251 177.971 L 288.251 158.478 267.623 158.410 L 246.996 158.341 246.996 177.971 M289.364 158.522 C 289.266 158.620,289.186 167.390,289.186 178.010 L 289.186 197.320 289.920 197.480 C 291.218 197.765,291.322 197.837,291.326 198.456 C 291.335 199.793,290.481 199.741,311.098 199.668 L 330.441 199.599 330.509 178.972 L 330.577 158.344 310.060 158.344 C 298.775 158.344,289.462 158.425,289.364 158.522 M291.485 201.222 C 291.272 201.775,291.272 241.481,291.484 242.034 C 291.697 242.590,331.836 242.690,332.390 242.136 C 332.633 241.893,332.710 237.140,332.710 222.377 L 332.710 202.937 332.094 202.937 C 331.254 202.937,330.629 202.405,330.526 201.602 L 330.441 200.935 311.044 200.866 C 293.529 200.804,291.631 200.839,291.485 201.222 M113.607 203.004 C 113.537 203.188,113.511 212.109,113.549 222.830 L 113.618 242.323 113.752 222.497 C 113.825 211.592,113.851 202.670,113.810 202.670 C 113.769 202.670,113.678 202.820,113.607 203.004 M199.533 202.854 C 199.790 202.921,200.210 202.921,200.467 202.854 C 200.724 202.787,200.514 202.732,200.000 202.732 C 199.486 202.732,199.276 202.787,199.533 202.854 M243.995 202.859 C 244.327 202.923,244.808 202.921,245.063 202.854 C 245.318 202.787,245.047 202.735,244.459 202.738 C 243.872 202.741,243.663 202.795,243.995 202.859 M333.778 222.377 C 333.778 237.140,333.855 241.893,334.099 242.136 C 334.563 242.600,374.650 242.600,375.113 242.136 C 375.357 241.893,375.434 237.140,375.434 222.377 L 375.434 202.937 354.606 202.937 L 333.778 202.937 333.778 222.377 M155.258 242.048 C 154.761 242.423,154.770 242.440,155.466 242.448 C 156.003 242.454,156.152 242.353,156.038 242.056 C 155.851 241.569,155.891 241.569,155.258 242.048 M243.960 242.061 C 243.851 242.345,243.995 242.457,244.468 242.457 C 245.258 242.457,245.303 242.303,244.619 241.937 C 244.235 241.731,244.075 241.761,243.960 242.061 M199.466 242.190 C 199.466 242.336,199.706 242.457,200.000 242.457 C 200.294 242.457,200.534 242.336,200.534 242.190 C 200.534 242.043,200.294 241.923,200.000 241.923 C 199.706 241.923,199.466 242.043,199.466 242.190 " stroke="none" fill="#8afa8a" fill-rule="evenodd"></path><path id="path8" d="M157.972 69.314 C 157.540 70.440,157.802 108.618,158.243 108.787 C 158.481 108.879,168.415 108.948,180.317 108.941 C 192.220 108.933,202.058 109.027,202.179 109.149 C 202.301 109.270,202.431 119.217,202.468 131.253 L 202.537 153.138 222.230 153.206 L 241.923 153.274 241.927 131.444 C 241.929 119.437,242.029 109.457,242.150 109.267 C 242.326 108.989,246.584 108.925,264.006 108.939 C 275.906 108.948,285.839 108.881,286.079 108.788 C 286.523 108.618,286.788 70.448,286.353 69.314 C 286.104 68.666,158.221 68.666,157.972 69.314 M199.332 89.052 L 199.332 108.545 178.838 108.613 L 158.344 108.682 158.344 89.052 L 158.344 69.423 178.838 69.491 L 199.332 69.559 199.332 89.052 M243.658 89.052 L 243.658 108.545 242.724 108.678 C 241.898 108.796,241.779 108.913,241.705 109.680 L 241.622 110.547 222.163 110.547 L 202.704 110.547 202.620 109.680 C 202.546 108.913,202.428 108.796,201.602 108.678 L 200.668 108.545 200.598 89.319 C 200.560 78.745,200.587 69.943,200.657 69.758 C 200.759 69.492,205.214 69.437,222.222 69.491 L 243.658 69.559 243.658 89.052 M285.981 89.052 L 285.981 108.678 265.554 108.678 L 245.127 108.678 245.127 89.230 C 245.127 78.534,245.207 69.702,245.305 69.604 C 245.403 69.506,254.595 69.426,265.732 69.426 L 285.981 69.426 285.981 89.052 M241.656 132.443 L 241.656 153.004 222.163 153.004 L 202.670 153.004 202.670 132.443 L 202.670 111.883 222.163 111.883 L 241.656 111.883 241.656 132.443 M157.988 113.663 C 157.891 113.761,157.810 123.659,157.810 135.659 C 157.810 153.613,157.747 157.531,157.451 157.776 C 157.195 157.989,150.840 158.094,135.222 158.143 L 113.351 158.211 113.351 177.971 L 113.351 197.730 177.637 197.798 L 241.923 197.865 241.923 177.971 L 241.923 158.077 220.042 158.077 C 206.111 158.077,198.104 157.983,198.001 157.817 C 197.913 157.674,197.848 147.806,197.858 135.888 C 197.870 120.007,197.793 114.122,197.570 113.852 C 197.244 113.460,158.377 113.274,157.988 113.663 M197.265 134.513 L 197.196 155.007 177.770 155.075 L 158.344 155.144 158.344 134.581 L 158.344 114.019 177.839 114.019 L 197.333 114.019 197.265 134.513 M197.380 157.343 C 197.453 158.106,197.568 158.221,198.331 158.295 L 199.199 158.378 199.199 177.854 L 199.199 197.330 177.702 197.330 L 156.205 197.330 156.273 177.904 L 156.342 158.478 157.276 158.344 C 158.102 158.226,158.221 158.110,158.295 157.343 L 158.378 156.475 177.837 156.475 L 197.296 156.475 197.380 157.343 M154.808 177.904 L 154.877 197.330 134.448 197.330 L 114.019 197.330 114.019 177.835 L 114.019 158.341 134.379 158.410 L 154.740 158.478 154.808 177.904 M241.656 177.837 L 241.656 197.330 221.228 197.330 L 200.801 197.330 200.801 177.837 L 200.801 158.344 221.228 158.344 L 241.656 158.344 241.656 177.837 M286.375 222.296 C 286.375 233.017,286.408 237.364,286.449 231.956 C 286.489 226.548,286.489 217.777,286.448 212.464 C 286.408 207.151,286.375 211.575,286.375 222.296 " stroke="none" fill="#b45cb4" fill-rule="evenodd"></path></g></svg>