<?xml version="1.0" standalone="no"?>
<!DOCTYPE svg PUBLIC "-//W3C//DTD SVG 1.1//EN"
 "http://www.w3.org/Graphics/SVG/1.1/DTD/svg11.dtd">
<!-- Created with svg_stack (http://github.com/astraw/svg_stack) -->
<svg xmlns:sodipodi="http://sodipodi.sourceforge.net/DTD/sodipodi-0.dtd" xmlns="http://www.w3.org/2000/svg" version="1.1" width="290.0" height="192.0">
  <defs/>
  <g id="id0:id0" transform="matrix(1.25,0,0,1.25,0.0,0.0)"><g transform="translate(0.000000,153.600000) scale(0.040000,-0.040000)" fill="#ffffff" stroke="none">
<path d="M610 3800 c0 -5 5 -10 10 -10 6 0 10 5 10 10 0 6 -4 10 -10 10 -5 0 -10 -4 -10 -10z"/>
<path d="M1774 3540 c0 -151 2 -213 3 -137 2 75 2 199 0 275 -1 75 -3 13 -3 -138z"/>
<path d="M4024 3545 c0 -148 2 -211 3 -138 2 72 2 194 0 270 -1 76 -3 17 -3 -132z"/>
<path d="M614 3530 c0 -129 2 -182 3 -117 2 64 2 170 0 235 -1 64 -3 11 -3 -118z"/>
<path d="M610 3280 c0 -5 5 -10 11 -10 5 0 7 5 4 10 -3 6 -8 10 -11 10 -2 0 -4 -4 -4 -10z"/>
<path d="M1135 3280 c-3 -5 -1 -10 4 -10 6 0 11 5 11 10 0 6 -2 10 -4 10 -3 0 -8 -4 -11 -10z"/>
<path d="M1190 3280 c0 -5 5 -10 11 -10 5 0 7 5 4 10 -3 6 -8 10 -11 10 -2 0 -4 -4 -4 -10z"/>
<path d="M610 3219 c0 -5 5 -7 10 -4 6 3 10 8 10 11 0 2 -4 4 -10 4 -5 0 -10 -5 -10 -11z"/>
<path d="M1135 3220 c3 -5 8 -10 11 -10 2 0 4 5 4 10 0 6 -5 10 -11 10 -5 0 -7 -4 -4 -10z"/>
<path d="M1190 3219 c0 -5 5 -7 10 -4 6 3 10 8 10 11 0 2 -4 4 -10 4 -5 0 -10 -5 -10 -11z"/>
<path d="M5175 3220 c3 -5 8 -10 11 -10 2 0 4 5 4 10 0 6 -5 10 -11 10 -5 0 -7 -4 -4 -10z"/>
<path d="M5230 3219 c0 -5 5 -7 10 -4 6 3 10 8 10 11 0 2 -4 4 -10 4 -5 0 -10 -5 -10 -11z"/>
<path d="M614 2950 c0 -140 2 -198 3 -127 2 70 2 184 0 255 -1 70 -3 12 -3 -128z"/>
<path d="M610 2639 c0 -5 5 -7 10 -4 6 3 10 8 10 11 0 2 -4 4 -10 4 -5 0 -10 -5 -10 -11z"/>
<path d="M614 2395 c0 -126 2 -177 3 -112 2 65 2 168 0 230 -1 62 -3 9 -3 -118z"/>
<path d="M610 2140 c0 -5 5 -10 10 -10 6 0 10 5 10 10 0 6 -4 10 -10 10 -5 0 -10 -4 -10 -10z"/>
<path d="M5230 2140 c0 -5 5 -10 11 -10 5 0 7 5 4 10 -3 6 -8 10 -11 10 -2 0 -4 -4 -4 -10z"/>
<path d="M0 175 l0 -175 2900 0 2900 0 0 175 0 175 -2900 0 -2900 0 0 -175z"/>
</g>
</g>
  <g id="id1:id1" transform="matrix(1.25,0,0,1.25,0.0,0.0)"><g transform="translate(0.000000,153.600000) scale(0.040000,-0.040000)" fill="#fccde6" stroke="none">
<path d="M4080 3540 l0 -270 265 0 265 0 0 270 0 270 -265 0 -265 0 0 -270z"/>
<path d="M4650 3540 l0 -270 270 0 270 0 0 270 0 270 -270 0 -270 0 0 -270z"/>
<path d="M5230 3538 l1 -273 270 0 269 0 -2 270 -3 270 -268 3 -268 2 1 -272z"/>
<path d="M5242 3229 c7 -4 6 -9 -1 -13 -8 -5 -11 -88 -11 -269 l0 -262 267 2 268 3 3 272 2 273 -269 0 c-148 0 -265 -3 -259 -6z"/>
<path d="M5230 2405 c0 -179 3 -256 11 -260 7 -5 8 -10 1 -14 -6 -3 111 -6 259 -6 l269 0 0 267 0 267 -269 0 -270 0 -1 -254z"/>
</g>
</g>
  <g id="id2:id2" transform="matrix(1.25,0,0,1.25,0.0,0.0)"><g transform="translate(0.000000,153.600000) scale(0.040000,-0.040000)" fill="#cdebc4" stroke="none">
<path d="M1780 3540 l0 -270 268 2 267 3 3 268 2 267 -270 0 -270 0 0 -270z"/>
<path d="M2342 3538 l3 -273 270 0 270 0 3 273 2 272 -275 0 -275 0 2 -272z"/>
<path d="M2920 3808 c0 -2 -1 -122 -1 -268 l-1 -265 271 -3 271 -2 0 270 0 270 -270 0 c-148 0 -270 -1 -270 -2z"/>
<path d="M3485 3540 l0 -270 268 0 267 0 0 270 0 270 -267 0 -268 0 0 -270z"/>
<path d="M173 3263 c70 -2 184 -2 255 0 70 1 12 3 -128 3 -140 0 -198 -2 -127 -3z"/>
<path d="M173 3233 c70 -2 184 -2 255 0 70 1 12 3 -128 3 -140 0 -198 -2 -127 -3z"/>
<path d="M2346 3233 c-7 -8 -8 -505 -1 -525 4 -10 57 -13 268 -11 l262 3 0 267 0 268 -261 2 c-144 1 -264 -1 -268 -4z"/>
<path d="M173 2683 c70 -2 184 -2 255 0 70 1 12 3 -128 3 -140 0 -198 -2 -127 -3z"/>
<path d="M3435 2640 c3 -5 8 -10 11 -10 2 0 4 5 4 10 0 6 -5 10 -11 10 -5 0 -7 -4 -4 -10z"/>
<path d="M157 2113 c73 -2 193 -2 265 0 73 1 14 3 -132 3 -146 0 -205 -2 -133 -3z"/>
<path d="M173 2083 c70 -2 184 -2 255 0 70 1 12 3 -128 3 -140 0 -198 -2 -127 -3z"/>
<path d="M4015 2060 c3 -5 8 -10 11 -10 2 0 4 5 4 10 0 6 -5 10 -11 10 -5 0 -7 -4 -4 -10z"/>
<path d="M2350 1560 c0 -5 5 -10 11 -10 5 0 7 5 4 10 -3 6 -8 10 -11 10 -2 0 -4 -4 -4 -10z"/>
</g>
</g>
  <g id="id3:id3" transform="matrix(1.25,0,0,1.25,0.0,0.0)"><g transform="translate(0.000000,153.600000) scale(0.040000,-0.040000)" fill="#dadadb" stroke="none">
<path d="M625 3798 c-10 -11 -10 -501 0 -518 3 -5 1 -10 -5 -12 -6 -1 106 -2 247 0 164 2 262 7 270 14 10 8 13 67 13 253 0 134 -3 250 -6 259 -5 14 -37 16 -258 16 -169 -1 -254 -5 -261 -12z"/>
<path d="M1196 3794 c-3 -9 -6 -125 -6 -259 0 -196 3 -245 14 -254 10 -8 87 -11 265 -10 l251 1 0 269 0 269 -259 0 c-227 0 -260 -2 -265 -16z"/>
<path d="M620 3232 c6 -2 8 -8 5 -12 -3 -5 -6 -127 -8 -272 l-2 -263 268 3 267 3 0 258 c0 199 -3 261 -13 269 -8 7 -106 12 -270 14 -141 2 -253 1 -247 0z"/>
<path d="M1201 3216 c-9 -10 -11 -83 -10 -265 l1 -251 264 0 264 0 0 264 0 264 -253 1 c-210 2 -256 -1 -266 -13z"/>
<path d="M2940 3221 c-9 -6 81 -10 248 -10 147 0 264 3 267 9 7 12 -496 13 -515 1z"/>
<path d="M3490 3220 c0 -7 92 -10 270 -10 166 1 268 5 265 11 -9 13 -535 12 -535 -1z"/>
<path d="M4080 3220 c-10 -6 83 -9 260 -9 177 0 270 3 260 9 -8 6 -123 10 -260 10 -137 0 -252 -4 -260 -10z"/>
<path d="M4660 3220 c-10 -6 77 -9 250 -9 l265 0 0 -260 c0 -144 3 -261 8 -261 13 0 9 514 -5 528 -15 15 -495 17 -518 2z"/>
<path d="M2934 2955 c0 -137 2 -195 3 -128 2 67 2 179 0 250 -1 70 -3 16 -3 -122z"/>
<path d="M4651 2704 c0 -11 3 -14 6 -6 3 7 2 16 -1 19 -3 4 -6 -2 -5 -13z"/>
<path d="M618 2653 c6 -3 10 -9 7 -13 -10 -17 -10 -490 0 -494 6 -3 3 -10 -5 -16 -13 -10 -13 -11 3 -6 9 3 132 6 272 6 l255 1 -2 262 -3 262 -270 1 c-148 1 -264 0 -257 -3z"/>
<path d="M5175 2391 c0 -143 3 -257 8 -254 4 2 7 119 7 259 0 140 -3 254 -7 254 -5 0 -8 -117 -8 -259z"/>
<path d="M4783 2133 c70 -2 184 -2 255 0 70 1 12 3 -128 3 -140 0 -198 -2 -127 -3z"/>
</g>
</g>
  <g id="id4:id4" transform="matrix(1.25,0,0,1.25,0.0,0.0)"><g transform="translate(0.000000,153.600000) scale(0.040000,-0.040000)" fill="#8dd5c8" stroke="none">
<path d="M2903 3803 c-20 -8 -19 -533 1 -533 12 0 14 45 15 270 0 149 0 270 -2 269 -1 0 -8 -3 -14 -6z"/>
<path d="M1764 3540 c0 -135 2 -190 3 -122 2 67 2 177 0 245 -1 67 -3 12 -3 -123z"/>
<path d="M3484 3540 c0 -135 2 -190 3 -122 2 67 2 177 0 245 -1 67 -3 12 -3 -123z"/>
<path d="M4034 3530 c0 -140 2 -198 3 -127 2 70 2 184 0 255 -1 70 -3 12 -3 -128z"/>
<path d="M1775 3220 c-3 -5 -1 -10 4 -10 6 0 11 5 11 10 0 6 -2 10 -4 10 -3 0 -8 -4 -11 -10z"/>
<path d="M1923 3223 c71 -2 183 -2 250 0 67 1 10 3 -128 3 -137 0 -192 -2 -122 -3z"/>
<path d="M1774 2945 c0 -143 2 -200 3 -127 2 73 2 190 0 260 -1 70 -3 10 -3 -133z"/>
<path d="M2493 2693 c71 -2 183 -2 250 0 67 1 10 3 -128 3 -137 0 -192 -2 -122 -3z"/>
<path d="M2927 2653 c-9 -9 -9 -516 1 -528 4 -6 104 -10 265 -10 l257 0 2 258 c0 141 1 262 2 268 1 12 -480 14 -511 2 -11 -4 -14 -3 -9 5 8 13 3 16 -7 5z m523 -13 c0 -5 -2 -10 -4 -10 -3 0 -8 5 -11 10 -3 6 -1 10 4 10 6 0 11 -4 11 -10z"/>
<path d="M2855 2640 c3 -5 8 -10 11 -10 2 0 4 5 4 10 0 6 -5 10 -11 10 -5 0 -7 -4 -4 -10z"/>
<path d="M2924 2078 c-3 -4 -5 -124 -7 -267 l-2 -260 273 0 272 0 -2 265 -3 265 -263 2 c-145 1 -266 -1 -268 -5z"/>
<path d="M2346 2072 c-10 -16 -6 -521 4 -527 6 -4 7 2 3 12 -6 15 -4 16 9 5 12 -9 77 -12 269 -12 l254 1 -2 262 -3 262 -264 3 c-146 1 -267 -2 -270 -6z"/>
<path d="M3490 2075 c0 -3 -1 -123 -1 -267 l0 -263 270 -3 269 -2 1 254 c1 182 -1 256 -10 261 -8 6 -8 10 2 16 7 4 -109 8 -259 9 -150 0 -272 -2 -272 -5z"/>
<path d="M3506 1513 c-3 -3 -6 -127 -6 -275 l0 -268 254 0 c205 0 256 3 265 14 8 10 11 89 11 274 l-2 261 -257 0 c-142 0 -261 -2 -265 -6z"/>
</g>
</g>
  <g id="id5:id5" transform="matrix(1.25,0,0,1.25,0.0,0.0)"><g transform="translate(0.000000,153.600000) scale(0.040000,-0.040000)" fill="#c0bad7" stroke="none">
<path d="M1154 3545 c0 -148 2 -211 3 -138 2 72 2 194 0 270 -1 76 -3 17 -3 -132z"/>
<path d="M1184 3545 c0 -148 2 -211 3 -138 2 72 2 194 0 270 -1 76 -3 17 -3 -132z"/>
<path d="M1722 3543 l-2 -273 -262 -3 -263 -2 263 -3 c204 -1 264 1 267 11 3 7 4 131 2 277 l-2 265 -3 -272z"/>
<path d="M4074 3540 c0 -151 2 -213 3 -137 2 75 2 199 0 275 -1 75 -3 13 -3 -138z"/>
<path d="M4614 3540 c0 -140 2 -198 3 -127 2 70 2 184 0 255 -1 70 -3 12 -3 -128z"/>
<path d="M4644 3540 c0 -140 2 -198 3 -127 2 70 2 184 0 255 -1 70 -3 12 -3 -128z"/>
<path d="M5194 3540 c0 -140 2 -198 3 -127 2 70 2 184 0 255 -1 70 -3 12 -3 -128z"/>
<path d="M5224 3540 c0 -140 2 -198 3 -127 2 70 2 184 0 255 -1 70 -3 12 -3 -128z"/>
<path d="M752 3263 c70 -2 187 -2 260 0 73 1 16 3 -127 3 -143 0 -203 -2 -133 -3z"/>
<path d="M5373 3263 c70 -2 184 -2 255 0 70 1 12 3 -128 3 -140 0 -198 -2 -127 -3z"/>
<path d="M752 3233 c70 -2 187 -2 260 0 73 1 16 3 -127 3 -143 0 -203 -2 -133 -3z"/>
<path d="M1458 3233 l262 -3 0 -265 0 -265 -265 0 -265 0 -3 258 -2 257 0 -260 0 -260 270 0 270 0 0 270 0 270 -265 0 -265 1 263 -3z"/>
<path d="M5373 3233 c70 -2 184 -2 255 0 70 1 12 3 -128 3 -140 0 -198 -2 -127 -3z"/>
<path d="M2920 2969 c0 -146 2 -268 4 -270 2 -2 124 -3 270 -1 l267 3 -1 257 c-1 183 2 257 10 257 8 0 12 -76 13 -255 l2 -255 278 -3 278 -2 -2 267 c-1 148 -3 263 -6 256 -7 -18 -539 -19 -546 -1 -3 10 -9 11 -25 1 -29 -17 -523 -17 -534 0 -4 7 -8 -108 -8 -254z m17 -142 c-1 -67 -3 -9 -3 128 0 138 2 192 3 122 2 -71 2 -183 0 -250z"/>
<path d="M4061 2973 c-1 -144 2 -264 7 -267 5 -3 130 -6 278 -6 l269 -1 1 268 c1 147 0 263 -3 256 -3 -9 -71 -12 -273 -12 -202 0 -270 3 -273 12 -3 7 -5 -106 -6 -250z"/>
<path d="M4643 2960 l2 -275 275 -2 c151 -1 270 1 265 5 -6 4 -10 105 -10 265 l0 258 -260 0 c-193 0 -261 3 -267 12 -4 6 -6 -112 -5 -263z m14 -262 c-3 -8 -6 -5 -6 6 -1 11 2 17 5 13 3 -3 4 -12 1 -19z"/>
<path d="M1152 2958 l-2 -268 -264 0 c-184 0 -267 -3 -272 -11 -7 -13 13 -29 36 -28 8 0 4 6 -10 12 -20 10 27 13 243 15 203 2 269 5 273 15 2 7 3 129 1 272 l-2 260 -3 -267z"/>
<path d="M5373 2683 c70 -2 184 -2 255 0 70 1 12 3 -128 3 -140 0 -198 -2 -127 -3z"/>
<path d="M4650 2390 l0 -270 273 0 c149 0 268 4 262 8 -6 4 -10 104 -10 262 0 158 4 258 10 262 6 4 -113 8 -262 8 l-273 0 0 -270z m388 -257 c-71 -2 -185 -2 -255 0 -71 1 -13 3 127 3 140 0 198 -2 128 -3z"/>
<path d="M758 2123 c72 -2 192 -2 265 0 72 1 13 3 -133 3 -146 0 -205 -2 -132 -3z"/>
<path d="M5373 2123 c70 -2 184 -2 255 0 70 1 12 3 -128 3 -140 0 -198 -2 -127 -3z"/>
<path d="M4601 914 c0 -11 3 -14 6 -6 3 7 2 16 -1 19 -3 4 -6 -2 -5 -13z"/>
<path d="M4601 404 c0 -11 3 -14 6 -6 3 7 2 16 -1 19 -3 4 -6 -2 -5 -13z"/>
<path d="M1448 353 c798 -2 2106 -2 2905 0 798 1 145 2 -1453 2 -1598 0 -2251 -1 -1452 -2z"/>
</g>
</g>
  <g id="id6:id6" transform="matrix(1.25,0,0,1.25,0.0,0.0)"><g transform="translate(0.000000,153.600000) scale(0.040000,-0.040000)" fill="#ffffb4" stroke="none">
<path d="M30 3538 l0 -273 270 0 270 0 0 273 0 272 -270 0 -270 0 0 -272z"/>
<path d="M30 2960 l0 -275 270 0 270 0 0 275 0 275 -270 0 -270 0 0 -275z"/>
<path d="M30 2390 l0 -270 254 0 c140 0 261 -3 270 -6 14 -6 16 22 16 269 l0 276 -270 1 -270 1 0 -271z"/>
<path d="M30 1812 l0 -273 270 1 270 1 0 272 0 272 -270 0 -270 0 0 -273z"/>
<path d="M30 1245 l0 -275 270 0 270 0 0 274 0 275 -270 1 -270 1 0 -276z"/>
</g>
</g>
  <g id="id7:id7" transform="matrix(1.25,0,0,1.25,0.0,0.0)"><g transform="translate(0.000000,153.600000) scale(0.040000,-0.040000)" fill="#bd80bd" stroke="none">
<path d="M5762 3806 c7 -8 15 -12 17 -11 5 6 -10 25 -20 25 -5 0 -4 -6 3 -14z"/>
<path d="M4620 3800 c0 -5 5 -10 10 -10 6 0 10 5 10 10 0 6 -4 10 -10 10 -5 0 -10 -4 -10 -10z"/>
<path d="M5200 3800 c0 -5 5 -10 10 -10 6 0 10 5 10 10 0 6 -4 10 -10 10 -5 0 -10 -4 -10 -10z"/>
<path d="M5750 3250 c0 -5 5 -10 10 -10 6 0 10 5 10 10 0 6 -4 10 -10 10 -5 0 -10 -4 -10 -10z"/>
<path d="M5224 2960 c0 -151 2 -213 3 -137 2 75 2 199 0 275 -1 75 -3 13 -3 -138z"/>
<path d="M3489 2697 c4 -4 129 -6 277 -5 l269 3 -277 5 c-152 3 -274 2 -269 -3z"/>
<path d="M4069 2697 c4 -4 122 -6 262 -5 l254 3 -262 5 c-144 3 -259 2 -254 -3z"/>
<path d="M3083 2693 c71 -2 183 -2 250 0 67 1 10 3 -128 3 -137 0 -192 -2 -122 -3z"/>
<path d="M5230 2670 c0 -6 97 -10 270 -10 173 0 270 4 270 10 0 6 -97 10 -270 10 -173 0 -270 -4 -270 -10z"/>
<path d="M5224 2390 c0 -146 2 -205 3 -132 2 72 2 192 0 265 -1 72 -3 13 -3 -133z"/>
<path d="M2346 1503 c-3 -4 -6 -126 -6 -272 0 -152 4 -260 9 -252 6 9 11 10 15 2 7 -11 152 -14 816 -15 l275 -1 0 270 0 270 -250 3 c-137 2 -260 0 -272 -3 l-23 -5 0 -261 c0 -180 -3 -260 -11 -257 -7 2 -10 86 -9 260 1 231 -1 256 -16 262 -21 8 -520 7 -528 -1z"/>
<path d="M2927 933 c-4 -3 -7 -127 -7 -275 l0 -268 270 0 270 0 0 275 0 275 -263 0 c-145 0 -267 -3 -270 -7z"/>
<path d="M3480 660 l0 -270 280 0 280 0 0 270 0 270 -280 0 -280 0 0 -270z"/>
<path d="M4060 660 l0 -270 269 0 269 0 6 23 c8 29 8 465 0 495 l-6 22 -269 0 -269 0 0 -270z"/>
</g>
</g>
  <g id="id8:id8" transform="matrix(1.25,0,0,1.25,0.0,0.0)"><g transform="translate(0.000000,153.600000) scale(0.040000,-0.040000)" fill="#818b91" stroke="none">
<path d="M173 3813 c70 -2 184 -2 255 0 70 1 12 3 -128 3 -140 0 -198 -2 -127 -3z"/>
<path d="M607 3813 c-4 -3 -6 -261 -4 -572 1 -311 3 -439 5 -283 l2 282 275 0 275 0 0 -266 c0 -242 2 -268 18 -280 9 -7 22 -13 27 -13 6 0 2 4 -7 10 -16 9 -18 33 -18 279 l0 270 275 0 c177 0 275 4 275 10 0 6 -98 10 -275 10 l-275 0 0 275 0 275 278 2 c152 2 25 4 -284 5 -308 2 -564 0 -567 -4z m553 -277 c0 -210 3 -275 13 -279 7 -2 8 -8 3 -13 -5 -5 -11 -4 -13 4 -4 9 -69 12 -279 12 l-274 0 0 275 0 275 275 0 275 0 0 -274z"/>
<path d="M2043 3812 l277 -2 0 -270 0 -270 -272 -3 -273 -3 280 -1 c222 -1 281 -4 283 -15 2 -10 56 -12 273 -10 l270 3 -3 -275 c-2 -151 1 -271 5 -267 4 4 7 132 5 284 -2 153 0 278 5 280 4 1 -119 1 -273 -1 l-280 -3 0 275 0 276 273 2 c149 2 20 3 -288 3 -308 0 -435 -1 -282 -3z"/>
<path d="M3188 3812 l272 -2 0 -270 c0 -173 4 -270 10 -270 6 0 10 97 10 270 l0 270 278 2 c152 2 25 3 -283 3 -308 0 -437 -1 -287 -3z"/>
<path d="M4203 3813 c76 -2 198 -2 270 0 73 1 11 3 -138 3 -148 0 -208 -2 -132 -3z"/>
<path d="M4788 3813 c72 -2 192 -2 265 0 72 1 13 3 -133 3 -146 0 -205 -2 -132 -3z"/>
<path d="M5362 3813 c70 -2 187 -2 260 0 73 1 16 3 -127 3 -143 0 -203 -2 -133 -3z"/>
<path d="M24 3540 c0 -140 2 -198 3 -127 2 70 2 184 0 255 -1 70 -3 12 -3 -128z"/>
<path d="M4620 3530 l0 -260 -272 -2 c-150 -2 -21 -3 287 -3 308 0 435 1 283 3 l-278 2 0 260 c0 167 -4 260 -10 260 -6 0 -10 -93 -10 -260z"/>
<path d="M5200 3530 c0 -167 4 -260 10 -260 6 0 10 93 10 260 0 167 -4 260 -10 260 -6 0 -10 -93 -10 -260z"/>
<path d="M5774 3535 c0 -143 2 -200 3 -127 2 73 2 190 0 260 -1 70 -3 10 -3 -133z"/>
<path d="M4020 3270 c-9 -6 -10 -10 -3 -10 6 0 15 5 18 10 8 12 4 12 -15 0z"/>
<path d="M3058 3263 c72 -2 192 -2 265 0 72 1 13 3 -133 3 -146 0 -205 -2 -132 -3z"/>
<path d="M3612 3263 c70 -2 187 -2 260 0 73 1 16 3 -127 3 -143 0 -203 -2 -133 -3z"/>
<path d="M50 3250 c0 -6 90 -10 250 -10 160 0 250 4 250 10 0 6 -90 10 -250 10 -160 0 -250 -4 -250 -10z"/>
<path d="M5227 3248 c-3 -10 51 -12 259 -10 162 2 264 6 264 12 0 16 -517 13 -523 -2z"/>
<path d="M2038 3233 l262 -3 -2 -273 -3 -272 -262 -3 -263 -2 -3 272 -2 273 -3 -289 c-1 -226 -5 -287 -14 -283 -10 3 -13 -53 -13 -262 l0 -266 -272 -3 -273 -2 -3 267 -2 268 0 -270 0 -270 288 0 287 0 2 -275 3 -275 2 260 3 260 263 -2 262 -2 0 -270 c0 -149 3 -271 7 -271 4 0 9 129 10 286 l3 287 260 0 260 1 -245 5 -245 6 0 266 c0 197 -3 265 -11 262 -7 -2 -15 0 -18 6 -4 6 -8 138 -9 293 l-2 283 -265 0 -265 1 263 -3z m280 -837 c1 -143 -2 -264 -6 -268 -5 -5 -130 -9 -278 -9 l-269 0 -3 258 c-1 142 0 263 3 270 3 11 63 13 277 11 l273 -3 3 -259z"/>
<path d="M2917 3233 c-10 -9 -9 -531 1 -536 4 -3 7 118 7 269 0 151 0 274 -1 274 0 0 -4 -3 -7 -7z"/>
<path d="M3207 3233 c150 -2 396 -2 545 0 150 1 28 2 -272 2 -300 0 -422 -1 -273 -2z"/>
<path d="M4035 2965 c0 -238 2 -275 15 -275 13 0 15 37 15 275 0 238 -2 275 -15 275 -13 0 -15 -37 -15 -275z"/>
<path d="M4348 3232 l273 -2 -3 -269 c-2 -148 0 -267 4 -265 4 3 13 -4 20 -16 12 -19 22 -20 274 -20 210 0 264 3 273 14 8 9 11 92 8 282 l-2 269 -3 -273 -2 -272 -272 2 -273 3 -3 272 -2 273 267 2 c148 2 21 3 -282 3 -302 0 -427 -1 -277 -3z"/>
<path d="M3458 2955 c-3 -230 -1 -265 12 -265 13 0 15 35 12 265 -1 156 -6 265 -12 265 -6 0 -11 -109 -12 -265z"/>
<path d="M5774 2950 c0 -151 2 -213 3 -137 2 75 2 199 0 275 -1 75 -3 13 -3 -138z"/>
<path d="M24 2960 c0 -140 2 -198 3 -127 2 70 2 184 0 255 -1 70 -3 12 -3 -128z"/>
<path d="M893 2683 c-164 -2 -263 -7 -263 -13 0 -6 96 -10 259 -10 221 0 260 2 265 15 3 8 4 14 3 13 -1 -2 -120 -4 -264 -5z"/>
<path d="M605 2393 l0 -278 273 0 272 0 -270 2 -270 3 -3 275 -2 275 0 -277z"/>
<path d="M1333 2653 c70 -2 184 -2 255 0 70 1 12 3 -128 3 -140 0 -198 -2 -127 -3z"/>
<path d="M2618 2653 l262 -3 0 -260 c0 -236 -2 -260 -17 -269 -10 -6 -13 -10 -8 -11 34 0 35 14 33 281 l-3 264 -265 0 -265 1 263 -3z"/>
<path d="M2915 2647 c-3 -7 -4 -127 -3 -267 l3 -255 5 268 c3 147 4 267 2 267 -1 0 -5 -6 -7 -13z"/>
<path d="M5192 2393 l-2 -273 -272 -3 -273 -2 273 -3 c212 -1 274 1 277 11 3 7 4 131 2 277 l-2 265 -3 -272z"/>
<path d="M1154 2390 c0 -146 2 -205 3 -132 2 72 2 192 0 265 -1 72 -3 13 -3 -133z"/>
<path d="M4644 2390 c0 -146 2 -205 3 -132 2 72 2 192 0 265 -1 72 -3 13 -3 -133z"/>
<path d="M24 2385 c0 -137 2 -195 3 -128 2 67 2 179 0 250 -1 70 -3 16 -3 -122z"/>
<path d="M5774 2390 c0 -135 2 -190 3 -122 2 67 2 177 0 245 -1 67 -3 12 -3 -123z"/>
<path d="M5227 2118 c2 -5 125 -8 273 -8 148 0 271 3 273 8 3 4 -120 7 -273 7 -153 0 -276 -3 -273 -7z"/>
<path d="M2918 2101 c-3 -11 -53 -13 -285 -12 -154 1 -283 -2 -286 -6 -3 -4 117 -8 266 -8 l272 0 2 -255 c2 -176 6 -255 13 -255 8 0 11 75 10 251 0 207 2 253 14 263 10 9 84 11 273 9 l258 -3 0 -273 c0 -235 2 -272 15 -272 13 0 15 36 15 267 l0 268 277 0 c152 0 274 4 271 8 -2 4 -131 7 -286 7 -223 -1 -282 2 -287 12 -8 20 -538 19 -542 -1z"/>
<path d="M24 1830 c0 -146 2 -205 3 -132 2 72 2 192 0 265 -1 72 -3 13 -3 -133z"/>
<path d="M4034 1810 c0 -140 2 -198 3 -127 2 70 2 184 0 255 -1 70 -3 12 -3 -128z"/>
<path d="M2632 1543 c147 -2 390 -2 540 0 150 1 30 2 -267 2 -297 0 -420 -1 -273 -2z"/>
<path d="M3768 1543 c-268 -3 -268 -3 -273 -26 -3 -12 -4 -139 -3 -282 l3 -260 3 273 2 273 268 -3 c249 -3 268 -2 268 15 0 9 0 16 -1 15 0 -2 -120 -4 -267 -5z"/>
<path d="M2878 1502 c10 -3 12 -60 12 -260 -1 -173 2 -258 9 -260 8 -3 11 77 11 256 0 199 3 261 13 265 6 2 -4 4 -23 4 -19 0 -29 -2 -22 -5z"/>
<path d="M4034 1245 c0 -143 2 -200 3 -127 2 73 2 190 0 260 -1 70 -3 10 -3 -133z"/>
<path d="M24 1240 c0 -140 2 -198 3 -128 2 71 2 185 0 256 -1 70 -3 12 -3 -128z"/>
<path d="M2483 963 c76 -2 198 -2 270 0 73 1 11 3 -138 3 -148 0 -208 -2 -132 -3z"/>
<path d="M3445 959 c-4 -6 -5 -12 -2 -15 2 -3 7 2 10 11 7 17 1 20 -8 4z"/>
<path d="M3628 963 c72 -2 192 -2 265 0 72 1 13 3 -133 3 -146 0 -205 -2 -132 -3z"/>
<path d="M2926 943 c-6 -14 -5 -15 5 -6 7 7 10 15 7 18 -3 3 -9 -2 -12 -12z"/>
<path d="M4610 662 l5 -277 3 269 c1 148 -1 273 -5 277 -5 5 -6 -117 -3 -269z"/>
<path d="M3460 660 c0 -173 4 -270 10 -270 6 0 10 97 10 270 0 173 -4 270 -10 270 -6 0 -10 -97 -10 -270z"/>
</g>
</g>
  <g id="id9:id9" transform="matrix(1.25,0,0,1.25,0.0,0.0)"><g transform="translate(0.000000,153.600000) scale(0.040000,-0.040000)" fill="#7fb1d4" stroke="none">
<path d="M1784 3215 c-5 -5 -9 -128 -9 -273 l0 -262 260 2 260 3 3 270 2 270 -254 0 c-156 0 -257 -4 -262 -10z"/>
<path d="M1202 2649 c7 -4 6 -9 -1 -13 -15 -10 -15 -482 0 -492 8 -4 7 -9 -2 -15 -8 -5 103 -8 261 -6 l275 2 0 263 0 263 -272 2 c-149 1 -267 -1 -261 -4z"/>
<path d="M1765 2647 c-3 -7 -4 -128 -3 -270 l3 -258 269 0 c148 0 273 4 278 9 4 4 7 125 6 268 l-3 259 -273 3 c-214 2 -274 0 -277 -11z"/>
<path d="M2345 2647 c-3 -7 -4 -127 -3 -267 l3 -255 265 0 265 0 2 265 c1 146 -1 259 -4 252 -3 -9 -9 -10 -17 -3 -8 7 -102 10 -258 8 -136 -1 -244 1 -241 6 2 4 2 7 -2 7 -3 0 -8 -6 -10 -13z"/>
<path d="M3078 2653 c61 -2 163 -2 225 0 61 1 11 3 -113 3 -124 0 -174 -2 -112 -3z"/>
<path d="M3454 2375 c0 -143 2 -200 3 -127 2 73 2 190 0 260 -1 70 -3 10 -3 -133z"/>
<path d="M3073 2113 c64 -2 170 -2 235 0 64 1 11 3 -118 3 -129 0 -182 -2 -117 -3z"/>
<path d="M1770 1835 c0 -137 -2 -259 -3 -270 -2 -20 4 -20 243 -20 135 0 254 4 265 8 16 7 17 7 5 -3 -13 -10 -13 -11 0 -7 13 3 15 42 15 271 l0 267 -262 2 -261 2 -2 -250z m15 -275 c3 -5 1 -10 -4 -10 -6 0 -11 5 -11 10 0 6 2 10 4 10 3 0 8 -4 11 -10z"/>
<path d="M3058 2083 c67 -2 177 -2 245 0 67 1 12 3 -123 3 -135 0 -190 -2 -122 -3z"/>
<path d="M2914 1820 c0 -135 2 -190 3 -122 2 67 2 177 0 245 -1 67 -3 12 -3 -123z"/>
<path d="M3484 1810 c0 -135 2 -190 3 -122 2 67 2 177 0 245 -1 67 -3 12 -3 -123z"/>
<path d="M2884 1810 c0 -129 2 -182 3 -117 2 64 2 170 0 235 -1 64 -3 11 -3 -118z"/>
<path d="M4026 973 c-6 -14 -5 -15 5 -6 7 7 10 15 7 18 -3 3 -9 -2 -12 -12z"/>
</g>
</g>
  <g id="id10:id10" transform="matrix(1.25,0,0,1.25,0.0,0.0)"><g transform="translate(0.000000,153.600000) scale(0.040000,-0.040000)" fill="#feee70" stroke="none">
<path d="M4333 2653 l-272 -3 0 -261 c0 -196 2 -261 12 -264 6 -3 130 -6 275 -7 l263 -3 -1 273 c-1 149 -2 271 -3 270 -1 -2 -124 -4 -274 -5z"/>
<path d="M3502 2388 l3 -263 265 0 265 0 3 263 2 262 -270 0 -270 0 2 -262z"/>
<path d="M4338 2083 l-258 -3 0 -260 c0 -143 1 -263 3 -267 1 -5 120 -9 265 -10 l262 -2 0 274 c0 151 -3 274 -7 273 -5 -2 -124 -4 -265 -5z"/>
<path d="M4085 1512 c-6 -4 -10 -108 -10 -275 l0 -267 272 0 272 0 -2 273 -2 272 -260 2 c-143 1 -264 -1 -270 -5z"/>
<path d="M4645 1491 c-3 -8 -5 -128 -5 -268 l1 -253 275 0 274 0 0 268 0 267 -270 0 c-222 0 -271 -2 -275 -14z"/>
</g>
</g>
  <g id="id11:id11" transform="matrix(1.25,0,0,1.25,0.0,0.0)"><g transform="translate(0.000000,153.600000) scale(0.040000,-0.040000)" fill="#b4db69" stroke="none">
<path d="M25 3809 c-11 -16 -1 -19 13 -3 7 8 8 14 3 14 -5 0 -13 -5 -16 -11z"/>
<path d="M557 3813 c9 -7 13 -79 16 -278 l3 -270 -1 274 c0 235 -2 275 -15 278 -11 3 -12 2 -3 -4z"/>
<path d="M30 3250 c0 -5 5 -10 10 -10 6 0 10 5 10 10 0 6 -4 10 -10 10 -5 0 -10 -4 -10 -10z"/>
<path d="M550 3250 c0 -5 5 -10 10 -10 6 0 10 5 10 10 0 6 -4 10 -10 10 -5 0 -10 -4 -10 -10z"/>
<path d="M574 2960 c0 -151 2 -213 3 -137 2 75 2 199 0 275 -1 75 -3 13 -3 -138z"/>
<path d="M30 2670 c0 -6 97 -10 270 -10 173 0 270 4 270 10 0 6 -97 10 -270 10 -173 0 -270 -4 -270 -10z"/>
<path d="M3495 2647 c-3 -7 -4 -127 -2 -267 l2 -255 3 262 2 263 263 3 262 2 -263 3 c-204 1 -264 -1 -267 -11z"/>
<path d="M4035 2389 c0 -227 2 -266 15 -265 8 1 17 -12 21 -29 4 -16 7 -24 8 -18 1 10 61 13 259 12 190 0 257 3 257 11 0 9 -67 12 -256 11 -212 -2 -258 1 -268 13 -8 10 -12 85 -12 265 0 139 2 255 5 259 2 4 -3 8 -12 8 -16 0 -17 -24 -17 -267z"/>
<path d="M4202 2653 c70 -2 187 -2 260 0 73 1 16 3 -127 3 -143 0 -203 -2 -133 -3z"/>
<path d="M574 2385 c0 -148 2 -211 3 -138 2 72 2 194 0 270 -1 76 -3 17 -3 -132z"/>
<path d="M4614 2385 c0 -148 2 -211 3 -138 2 72 2 194 0 270 -1 76 -3 17 -3 -132z"/>
<path d="M30 2100 c0 -6 97 -10 270 -10 173 0 270 4 270 10 0 6 -97 10 -270 10 -173 0 -270 -4 -270 -10z"/>
<path d="M574 1815 c0 -148 2 -211 3 -138 2 72 2 194 0 270 -1 76 -3 17 -3 -132z"/>
<path d="M4610 1810 c0 -173 -4 -270 -10 -270 -15 0 -12 -17 4 -23 12 -5 14 38 16 279 0 156 -2 284 -5 284 -3 0 -5 -121 -5 -270z"/>
<path d="M4650 1810 c0 -183 3 -270 11 -270 5 0 7 6 3 13 -6 9 -4 9 8 -1 12 -9 76 -12 269 -10 l254 3 3 268 2 267 -275 0 -275 0 0 -270z"/>
<path d="M5220 1810 l0 -270 275 0 275 0 0 270 0 270 -275 0 -275 0 0 -270z"/>
<path d="M4074 1530 c0 -13 34 -15 253 -12 148 1 253 7 253 12 0 5 -105 11 -253 12 -219 3 -253 1 -253 -12z"/>
<path d="M30 1530 c0 -6 97 -10 270 -10 173 0 270 4 270 10 0 6 -97 10 -270 10 -173 0 -270 -4 -270 -10z"/>
<path d="M5230 1240 l2 -280 269 0 269 0 0 280 0 280 -270 0 -271 0 1 -280z"/>
<path d="M572 1243 l-2 -273 -269 0 c-174 0 -271 4 -274 10 -3 6 -4 5 -3 -2 4 -19 544 -24 551 -6 3 8 4 132 2 278 l-2 265 -3 -272z"/>
<path d="M5194 1235 c0 -148 2 -211 3 -138 2 72 2 194 0 270 -1 76 -3 17 -3 -132z"/>
<path d="M4620 1245 c0 -157 4 -245 10 -245 6 0 10 88 10 245 0 157 -4 245 -10 245 -6 0 -10 -88 -10 -245z"/>
<path d="M4620 980 c0 -6 -102 -11 -272 -12 -150 -2 -23 -3 282 -3 305 0 432 1 283 3 -171 1 -273 6 -273 12 0 6 -4 10 -10 10 -5 0 -10 -4 -10 -10z"/>
<path d="M5220 665 l0 -275 275 0 275 0 0 275 0 275 -275 0 -275 0 0 -275z"/>
<path d="M4650 660 l0 -270 275 0 275 0 0 270 0 270 -275 0 -275 0 0 -270z"/>
</g>
</g>
  <g id="id12:id12" transform="matrix(1.25,0,0,1.25,0.0,0.0)"><g transform="translate(0.000000,153.600000) scale(0.040000,-0.040000)" fill="#fbb661" stroke="none">
<path d="M4203 2113 c71 -2 183 -2 250 0 67 1 10 3 -128 3 -137 0 -192 -2 -122 -3z"/>
<path d="M4088 2083 c7 -3 16 -2 19 1 4 3 -2 6 -13 5 -11 0 -14 -3 -6 -6z"/>
<path d="M4233 2083 c65 -2 168 -2 230 0 62 1 9 3 -118 3 -126 0 -177 -2 -112 -3z"/>
<path d="M611 1810 l0 -270 269 0 270 0 0 270 0 270 -270 0 -269 0 0 -270z"/>
<path d="M4074 1825 c0 -137 2 -195 3 -128 2 67 2 179 0 250 -1 70 -3 16 -3 -122z"/>
<path d="M611 1240 l0 -280 269 0 270 0 0 280 0 280 -270 0 -269 0 0 -280z"/>
<path d="M4782 1503 c70 -2 187 -2 260 0 73 1 16 3 -127 3 -143 0 -203 -2 -133 -3z"/>
<path d="M4074 1240 c0 -135 2 -190 3 -122 2 67 2 177 0 245 -1 67 -3 12 -3 -123z"/>
<path d="M607 933 c-4 -3 -7 -127 -7 -275 l0 -268 280 0 280 0 -2 273 -3 272 -271 3 c-149 1 -273 -1 -277 -5z"/>
<path d="M30 660 l0 -270 275 0 275 0 0 270 0 270 -275 0 -275 0 0 -270z"/>
<path d="M1180 660 l0 -270 275 0 275 0 0 270 0 270 -275 0 -275 0 0 -270z"/>
</g>
</g>
  <g id="id13:id13" transform="matrix(1.25,0,0,1.25,0.0,0.0)"><g transform="translate(0.000000,153.600000) scale(0.040000,-0.040000)" fill="#fa7f73" stroke="none">
<path d="M1190 1523 l0 -558 272 2 273 3 0 272 0 273 -267 3 c-355 3 -359 21 -5 24 l262 3 0 265 0 265 -267 3 -268 2 0 -557z"/>
<path d="M1767 1503 c-4 -3 -7 -127 -7 -275 l0 -268 270 0 270 0 0 275 0 275 -263 0 c-145 0 -267 -3 -270 -7z"/>
<path d="M1770 938 c0 -2 -2 -126 -3 -276 l-2 -272 278 0 277 0 -2 273 -3 272 -272 3 c-150 1 -273 1 -273 0z"/>
<path d="M2340 660 l0 -270 270 0 270 0 0 270 0 270 -270 0 -270 0 0 -270z"/>
</g>
</g>
  <g id="id14:id14" transform="matrix(1.25,0,0,1.25,0.0,0.0)"><g transform="translate(0.000000,153.600000) scale(0.040000,-0.040000)" fill="#7f664c" stroke="none">
<path d="M2888 3813 c6 -2 18 -2 25 0 6 3 1 5 -13 5 -14 0 -19 -2 -12 -5z"/>
<path d="M1732 3253 l-2 -563 -262 -3 -263 -2 263 -3 c203 -1 264 1 267 11 3 6 4 262 3 567 l-3 555 -3 -562z"/>
<path d="M4062 3543 c-1 -149 1 -274 6 -276 4 -3 6 77 4 176 -4 339 -8 373 -10 100z"/>
<path d="M2895 3262 c-6 -4 -10 -112 -10 -287 l0 -280 -272 -3 -273 -2 -3 277 -2 278 0 -280 0 -280 268 -3 c168 -1 275 1 287 8 12 7 21 7 25 0 4 -7 201 -9 568 -8 l562 3 -565 5 -565 5 0 272 c0 149 -3 269 -7 267 -4 -2 -9 0 -13 6 -3 6 4 14 17 19 13 6 16 10 8 10 -8 0 -19 -3 -25 -7z"/>
<path d="M3458 3263 c6 -2 18 -2 25 0 6 3 1 5 -13 5 -14 0 -19 -2 -12 -5z"/>
<path d="M5200 3263 c8 -3 19 -11 23 -17 6 -7 7 -6 4 4 -2 8 -12 16 -23 17 -13 2 -15 1 -4 -4z"/>
<path d="M1160 3250 c0 -5 5 -10 10 -10 6 0 10 5 10 10 0 6 -4 10 -10 10 -5 0 -10 -4 -10 -10z"/>
<path d="M2310 2962 l5 -277 3 269 c1 148 -1 273 -5 277 -5 5 -6 -117 -3 -269z"/>
<path d="M1156 2684 c-3 -9 -6 -21 -5 -27 0 -7 4 -2 10 11 5 14 13 20 20 16 8 -4 9 -3 5 4 -10 17 -23 15 -30 -4z"/>
<path d="M4340 2690 l-285 -6 290 -1 c269 -2 290 -3 296 -20 6 -15 8 -15 8 -2 1 9 -5 20 -11 25 -7 5 -141 7 -298 4z"/>
<path d="M2312 2664 c10 -10 20 -16 22 -13 3 3 -5 11 -17 18 -21 13 -21 12 -5 -5z"/>
<path d="M3493 2663 c-18 -7 -19 -533 -1 -551 9 -9 81 -12 261 -12 150 0 256 -4 267 -10 16 -8 18 -8 14 5 -4 10 0 15 10 15 15 0 16 -54 16 -575 0 -316 3 -575 8 -575 6 0 6 1115 0 1148 -2 11 -60 14 -288 15 l-285 2 0 265 0 265 562 0 c308 0 559 3 557 7 -5 8 -1101 9 -1121 1z"/>
<path d="M2890 2646 c7 -7 13 -7 20 0 6 6 3 10 -10 10 -13 0 -16 -4 -10 -10z"/>
<path d="M3462 2373 c-1 -155 1 -284 6 -286 4 -3 6 79 4 181 -4 352 -8 387 -10 105z"/>
<path d="M1150 2120 c0 -7 -91 -10 -273 -8 -178 2 -274 -1 -274 -7 0 -5 -1 -270 -1 -587 l-2 -578 -290 0 -290 0 0 -280 0 -280 858 3 857 2 0 275 0 275 -287 3 -288 2 0 293 c0 737 -1 897 -6 897 -2 0 -4 -5 -4 -10z m0 -310 l0 -270 -270 0 -270 0 0 270 0 270 270 0 270 0 0 -270z m0 -570 l0 -280 -270 0 -270 0 0 280 0 280 270 0 270 0 0 -280z m8 -577 l2 -273 -280 0 -280 0 0 275 0 275 278 -2 277 -3 3 -272z m-578 -3 l0 -270 -275 0 -275 0 0 270 0 270 275 0 275 0 0 -270z m1150 0 l0 -270 -275 0 -275 0 0 270 0 270 275 0 275 0 0 -270z"/>
<path d="M2911 2113 c-1 -12 -9 -24 -18 -26 -17 -4 -17 -5 0 -6 19 -1 32 21 24 41 -3 7 -6 3 -6 -9z"/>
<path d="M21 2104 c0 -11 3 -14 6 -6 3 7 2 16 -1 19 -3 4 -6 -2 -5 -13z"/>
<path d="M4612 2100 c0 -14 2 -19 5 -12 2 6 2 18 0 25 -3 6 -5 1 -5 -13z"/>
<path d="M5176 2105 c-12 -13 -55 -15 -259 -15 -187 0 -246 3 -250 13 -15 43 -22 -39 -22 -281 l-1 -277 3 268 3 267 275 0 276 0 -3 -270 c-2 -213 0 -270 10 -270 10 0 12 -64 10 -300 l-3 -301 -285 -2 -285 -2 0 -275 0 -275 568 -2 567 -3 0 868 -1 867 -278 0 c-219 0 -277 -3 -274 -12 3 -8 -3 -13 -17 -13 -16 0 -20 4 -16 15 3 8 4 15 1 15 -2 0 -10 -7 -19 -15z m594 -295 l0 -270 -275 0 -275 0 0 270 0 270 275 0 275 0 0 -270z m0 -570 l0 -280 -270 0 -270 0 0 280 0 280 270 0 270 0 0 -280z m0 -575 l0 -275 -275 0 -275 0 0 275 0 275 275 0 275 0 0 -275z m-570 -5 l0 -270 -275 0 -275 0 0 270 0 270 275 0 275 0 0 -270z"/>
<path d="M1184 2085 c-2 -5 -3 -262 -2 -570 l3 -560 3 563 2 562 268 -2 267 -3 0 -265 0 -265 -262 -3 c-354 -3 -350 -21 5 -24 l267 -3 0 -278 c0 -215 3 -277 13 -277 6 0 12 -6 12 -12 0 -10 62 -13 277 -13 l278 0 3 -272 2 -273 -282 -3 c-156 -1 -32 -3 274 -5 339 -1 567 2 582 8 l25 9 3 278 c2 177 -1 281 -7 285 -5 4 -17 7 -25 7 -8 0 -4 -5 9 -10 14 -5 20 -13 15 -17 -5 -4 -142 -6 -304 -4 l-295 3 0 287 0 287 -288 0 c-184 0 -287 4 -287 10 0 6 0 133 0 283 0 213 -2 273 -12 277 -28 10 -541 10 -544 0z m1116 -850 l0 -275 -270 0 -270 0 0 268 c0 148 3 272 7 275 3 4 125 7 270 7 l263 0 0 -275z m580 -575 l0 -270 -270 0 -270 0 0 270 0 270 270 0 270 0 0 -270z m27 -122 c-1 -73 -3 -16 -3 127 0 143 2 203 3 133 2 -70 2 -187 0 -260z"/>
<path d="M2314 1825 c0 -137 2 -195 3 -128 2 67 2 179 0 250 -1 70 -3 16 -3 -122z"/>
<path d="M2334 1810 c0 -146 2 -205 3 -132 2 72 2 192 0 265 -1 72 -3 13 -3 -133z"/>
<path d="M4616 1520 c9 -33 13 -37 23 -22 6 10 71 12 284 10 152 -2 277 1 277 5 0 4 -129 7 -287 7 -225 -1 -288 2 -295 12 -6 8 -7 4 -2 -12z"/>
<path d="M2622 1510 c153 -3 403 -3 555 0 191 4 104 5 -277 5 -381 0 -468 -1 -278 -5z"/>
<path d="M3482 1243 c-1 -149 1 -274 6 -276 4 -3 6 77 4 176 -4 339 -8 373 -10 100z"/>
<path d="M2332 1238 c-1 -147 1 -269 6 -271 4 -3 6 74 4 171 -4 334 -8 367 -10 100z"/>
<path d="M3458 1223 c-2 -153 -2 -281 0 -285 2 -5 135 -8 295 -8 l292 0 -3 -265 c-2 -177 1 -265 8 -265 7 0 10 90 10 265 l0 265 273 2 c162 2 43 5 -296 8 l-568 5 1 278 c0 152 -2 277 -4 277 -3 0 -7 -125 -8 -277z"/>
<path d="M1332 963 c70 -2 187 -2 260 0 73 1 16 3 -127 3 -143 0 -203 -2 -133 -3z"/>
<path d="M2940 950 c0 -6 90 -10 250 -10 160 0 250 4 250 10 0 6 -90 10 -250 10 -160 0 -250 -4 -250 -10z"/>
<path d="M1764 660 c0 -140 2 -198 3 -128 2 71 2 185 0 255 -1 71 -3 13 -3 -127z"/>
<path d="M3053 383 c75 -2 199 -2 275 0 75 1 13 3 -138 3 -151 0 -213 -2 -137 -3z"/>
<path d="M3618 383 c78 -2 206 -2 285 0 78 1 14 3 -143 3 -157 0 -221 -2 -142 -3z"/>
<path d="M4198 383 c78 -2 206 -2 285 0 78 1 14 3 -143 3 -157 0 -221 -2 -142 -3z"/>
</g>
</g>
  <g id="id15:id15" transform="matrix(1.25,0,0,1.25,0.0,0.0)"><g transform="translate(0.000000,153.600000) scale(0.040000,-0.040000)" fill="#1a1c1a" stroke="none">
<path d="M0 2100 l0 -1740 2900 0 2900 0 0 1740 0 1740 -2900 0 -2900 0 0 -1740z m580 290 l0 -1430 -280 0 -280 0 0 1430 0 1430 280 0 280 0 0 -1430z m1155 860 l0 -565 -284 -2 c-156 -1 -285 -4 -287 -6 -4 -3 -5 -503 -4 -1439 l0 -298 288 -2 287 -3 0 -275 0 -275 -857 -2 -858 -3 0 280 0 280 290 0 290 0 0 578 c0 317 0 965 0 1440 l0 862 567 -2 568 -3 0 -565z m2305 290 l0 -280 -570 -2 c-314 -2 -570 -6 -570 -11 0 -4 518 -7 1150 -7 l1150 0 -2 -575 c-3 -555 -2 -575 16 -575 12 0 16 5 12 16 -3 9 -6 272 -6 585 l0 569 -577 2 -578 3 0 275 0 275 857 3 858 2 0 -1720 0 -1720 -568 3 -567 2 0 275 0 275 285 2 285 2 3 301 2 300 -290 0 -290 0 0 566 c0 312 -1 569 -4 571 -2 2 -388 4 -859 3 -567 0 -858 3 -862 10 -4 7 -12 7 -25 0 -12 -7 -119 -9 -287 -8 l-268 3 -2 285 -2 285 -286 3 -285 2 0 280 0 280 1140 0 1140 0 0 -280z m-1723 -590 c1 -228 4 -286 15 -288 7 -1 265 -3 573 -5 l560 -2 3 -282 2 -283 273 2 272 3 -254 2 c-167 2 -259 7 -268 14 -10 9 -13 69 -13 280 l0 269 23 5 c12 3 267 4 567 3 l545 -3 5 -573 5 -573 288 1 287 1 0 -281 0 -280 -570 0 -570 0 0 575 c0 453 -3 575 -12 575 -10 0 -12 -120 -10 -575 l2 -575 -277 2 -278 3 0 287 0 288 -575 2 -575 3 -3 250 c-1 138 0 260 3 273 l5 22 285 0 285 0 0 275 c0 182 -3 275 -10 275 -7 0 -10 -86 -10 -255 1 -140 -2 -259 -5 -265 -4 -7 -101 -10 -278 -10 -150 0 -276 0 -282 0 -6 0 -10 -101 -10 -282 l0 -283 -277 -3 -278 -2 -2 285 -3 286 -285 2 -285 2 -3 273 -2 272 290 0 290 0 0 290 0 290 278 -2 277 -3 2 -285z m-589 -865 c10 -4 12 -64 12 -277 0 -150 0 -277 0 -283 0 -6 103 -10 287 -10 l288 0 0 -288 0 -287 288 -2 c158 0 292 -1 297 -2 6 -1 10 4 10 9 0 6 -106 12 -287 15 l-288 5 -3 264 c-2 185 1 268 9 277 17 20 1101 20 1118 0 8 -10 11 -96 11 -287 l-1 -274 575 -3 576 -2 0 -280 0 -279 -1430 -1 -1430 0 0 290 0 290 -290 0 -290 0 0 563 c0 310 2 566 4 568 6 5 528 0 544 -6z"/>
<path d="M4670 2100 c0 -6 90 -10 250 -10 160 0 250 4 250 10 0 6 -90 10 -250 10 -160 0 -250 -4 -250 -10z"/>
<path d="M2904 665 c0 -143 2 -200 3 -127 2 73 2 190 0 260 -1 70 -3 10 -3 -133z"/>
</g>
</g>
</svg>
